<svg width="391" height="205" viewBox="0 0 391 205" fill="none" xmlns="http://www.w3.org/2000/svg">
<g clip-path="url(#clip0_1_1789)">
<rect x="70.5527" y="-8.72351" width="532.759" height="248.034" rx="7.33828" fill="white"/>
<path d="M91.1375 68.1546C90.7266 68.1546 90.345 68.0783 89.9928 67.9257C89.6405 67.7672 89.3411 67.5529 89.0946 67.2828C88.848 67.0128 88.666 66.7016 88.5486 66.3494L89.4292 65.9796C89.5877 66.3846 89.8196 66.6958 90.1249 66.913C90.4301 67.1302 90.7824 67.2388 91.1816 67.2388C91.4164 67.2388 91.6219 67.2036 91.798 67.1331C91.9741 67.0568 92.1091 66.9511 92.2031 66.8161C92.3029 66.6811 92.3528 66.5255 92.3528 66.3494C92.3528 66.1087 92.2852 65.9179 92.1502 65.777C92.0152 65.6361 91.8156 65.5246 91.5514 65.4424L90.3186 65.0549C89.8255 64.9023 89.4497 64.6704 89.1914 64.3593C88.9331 64.0422 88.804 63.6724 88.804 63.2497C88.804 62.8799 88.895 62.557 89.077 62.2811C89.2589 61.9993 89.5084 61.7791 89.8255 61.6206C90.1483 61.4621 90.5153 61.3829 90.9262 61.3829C91.3195 61.3829 91.6776 61.4533 92.0005 61.5942C92.3234 61.7292 92.5993 61.9171 92.8283 62.1578C93.0631 62.3985 93.2334 62.6773 93.339 62.9943L92.476 63.373C92.3469 63.0266 92.1444 62.7595 91.8684 62.5717C91.5984 62.3838 91.2843 62.2899 90.9262 62.2899C90.709 62.2899 90.5182 62.328 90.3538 62.4043C90.1894 62.4748 90.0603 62.5805 89.9663 62.7214C89.8783 62.8564 89.8343 63.0149 89.8343 63.1969C89.8343 63.4082 89.9018 63.5961 90.0368 63.7605C90.1718 63.9248 90.3773 64.0481 90.6532 64.1303L91.798 64.4914C92.3205 64.6499 92.7138 64.8788 92.978 65.1782C93.2422 65.4717 93.3742 65.8387 93.3742 66.279C93.3742 66.6429 93.2774 66.9658 93.0837 67.2476C92.8958 67.5294 92.6345 67.7525 92.2999 67.9169C91.9653 68.0754 91.5778 68.1546 91.1375 68.1546ZM90.7325 68.9295V60.6079H91.4369V68.9295H90.7325ZM95.2364 68.049V62.3691H93.9771V61.4885H96.2667V68.049H95.2364ZM99.5918 68.1546C99.2454 68.1546 98.9196 68.093 98.6143 67.9697C98.3091 67.8405 98.0449 67.6615 97.8218 67.4325C97.5987 67.2036 97.4402 66.9277 97.3463 66.6048L98.2181 66.2702C98.3296 66.5813 98.5116 66.8191 98.764 66.9834C99.0165 67.1478 99.2924 67.23 99.5918 67.23C99.8384 67.23 100.056 67.1742 100.243 67.0627C100.431 66.9511 100.578 66.7985 100.684 66.6048C100.795 66.411 100.851 66.1909 100.851 65.9443C100.851 65.6919 100.795 65.4717 100.684 65.2839C100.578 65.0902 100.431 64.9405 100.243 64.8348C100.056 64.7232 99.8384 64.6675 99.5918 64.6675C99.3452 64.6675 99.1192 64.7232 98.9137 64.8348C98.7083 64.9463 98.5586 65.096 98.4646 65.2839L97.6281 65.099L98.1388 61.4885H101.635V62.3691H98.5439L98.9401 61.9376L98.5615 64.7027L98.2357 64.4825C98.4118 64.236 98.6261 64.0569 98.8785 63.9454C99.1309 63.8338 99.4186 63.7781 99.7415 63.7781C100.17 63.7781 100.543 63.8749 100.86 64.0687C101.183 64.2565 101.432 64.5148 101.608 64.8436C101.79 65.1665 101.881 65.5334 101.881 65.9443C101.881 66.3611 101.782 66.7369 101.582 67.0715C101.382 67.4061 101.109 67.6703 100.763 67.864C100.422 68.0578 100.032 68.1546 99.5918 68.1546ZM102.782 68.049V61.3829H103.777V65.8475L103.389 65.7506L105.776 63.2849H107.017L105.221 65.1958L107.097 68.049H105.952L104.279 65.5216L104.869 65.4424L103.46 66.9394L103.777 66.279V68.049H102.782Z" fill="#14171F" fill-opacity="0.6"/>
<path d="M91.1375 96.0429C90.7266 96.0429 90.345 95.9666 89.9928 95.814C89.6405 95.6555 89.3411 95.4412 89.0946 95.1711C88.848 94.9011 88.666 94.5899 88.5486 94.2377L89.4292 93.8679C89.5877 94.2729 89.8196 94.5841 90.1249 94.8013C90.4301 95.0185 90.7824 95.1271 91.1816 95.1271C91.4164 95.1271 91.6219 95.0919 91.798 95.0214C91.9741 94.9451 92.1091 94.8394 92.2031 94.7044C92.3029 94.5694 92.3528 94.4138 92.3528 94.2377C92.3528 93.997 92.2852 93.8062 92.1502 93.6653C92.0152 93.5244 91.8156 93.4129 91.5514 93.3307L90.3186 92.9432C89.8255 92.7906 89.4497 92.5587 89.1914 92.2476C88.9331 91.9306 88.804 91.5607 88.804 91.138C88.804 90.7682 88.895 90.4453 89.077 90.1694C89.2589 89.8876 89.5084 89.6674 89.8255 89.5089C90.1483 89.3504 90.5153 89.2712 90.9262 89.2712C91.3195 89.2712 91.6776 89.3416 92.0005 89.4825C92.3234 89.6175 92.5993 89.8054 92.8283 90.0461C93.0631 90.2868 93.2334 90.5656 93.339 90.8826L92.476 91.2613C92.3469 90.9149 92.1444 90.6478 91.8684 90.46C91.5984 90.2721 91.2843 90.1782 90.9262 90.1782C90.709 90.1782 90.5182 90.2163 90.3538 90.2927C90.1894 90.3631 90.0603 90.4688 89.9663 90.6097C89.8783 90.7447 89.8343 90.9032 89.8343 91.0852C89.8343 91.2965 89.9018 91.4844 90.0368 91.6488C90.1718 91.8131 90.3773 91.9364 90.6532 92.0186L91.798 92.3797C92.3205 92.5382 92.7138 92.7671 92.978 93.0665C93.2422 93.3601 93.3742 93.727 93.3742 94.1673C93.3742 94.5312 93.2774 94.8541 93.0837 95.1359C92.8958 95.4177 92.6345 95.6408 92.2999 95.8052C91.9653 95.9637 91.5778 96.0429 91.1375 96.0429ZM90.7325 96.8178V88.4962H91.4369V96.8178H90.7325ZM95.2364 95.9373V90.2574H93.9771V89.3768H96.2667V95.9373H95.2364ZM100.12 96.0429C99.5977 96.0429 99.1397 95.902 98.7464 95.6202C98.3531 95.3326 98.0449 94.9363 97.8218 94.4314C97.6046 93.9207 97.496 93.3278 97.496 92.6526C97.496 91.9716 97.6046 91.3787 97.8218 90.8738C98.0449 90.369 98.3502 89.9756 98.7376 89.6938C99.1309 89.4121 99.5889 89.2712 100.111 89.2712C100.634 89.2712 101.089 89.4121 101.476 89.6938C101.87 89.9756 102.175 90.3719 102.392 90.8826C102.615 91.3875 102.727 91.9775 102.727 92.6526C102.727 93.3278 102.618 93.9207 102.401 94.4314C102.184 94.9363 101.878 95.3326 101.485 95.6202C101.098 95.902 100.643 96.0429 100.12 96.0429ZM100.12 95.0919C100.443 95.0919 100.722 94.9921 100.957 94.7925C101.192 94.5929 101.374 94.3111 101.503 93.9471C101.632 93.5831 101.696 93.1516 101.696 92.6526C101.696 92.1536 101.632 91.7221 101.503 91.3582C101.374 90.9942 101.192 90.7124 100.957 90.5128C100.722 90.3132 100.44 90.2134 100.111 90.2134C99.7885 90.2134 99.5096 90.3132 99.2748 90.5128C99.0399 90.7124 98.858 90.9942 98.7288 91.3582C98.5997 91.7221 98.5351 92.1536 98.5351 92.6526C98.5351 93.1458 98.5997 93.5773 98.7288 93.9471C98.858 94.3111 99.0399 94.5929 99.2748 94.7925C99.5155 94.9921 99.7973 95.0919 100.12 95.0919ZM103.667 95.9373V89.2712H104.662V93.7358L104.275 93.6389L106.661 91.1732H107.903L106.107 93.0841L107.982 95.9373H106.837L105.164 93.41L105.754 93.3307L104.345 94.8277L104.662 94.1673V95.9373H103.667Z" fill="#14171F" fill-opacity="0.6"/>
<path d="M91.1375 123.925C90.7266 123.925 90.345 123.849 89.9928 123.696C89.6405 123.537 89.3411 123.323 89.0946 123.053C88.848 122.783 88.666 122.472 88.5486 122.12L89.4292 121.75C89.5877 122.155 89.8196 122.466 90.1249 122.683C90.4301 122.9 90.7824 123.009 91.1816 123.009C91.4164 123.009 91.6219 122.974 91.798 122.903C91.9741 122.827 92.1091 122.721 92.2031 122.586C92.3029 122.451 92.3528 122.296 92.3528 122.12C92.3528 121.879 92.2852 121.688 92.1502 121.547C92.0152 121.406 91.8156 121.295 91.5514 121.213L90.3186 120.825C89.8255 120.673 89.4497 120.441 89.1914 120.13C88.9331 119.813 88.804 119.443 88.804 119.02C88.804 118.65 88.895 118.327 89.077 118.051C89.2589 117.77 89.5084 117.549 89.8255 117.391C90.1483 117.232 90.5153 117.153 90.9262 117.153C91.3195 117.153 91.6776 117.224 92.0005 117.364C92.3234 117.499 92.5993 117.687 92.8283 117.928C93.0631 118.169 93.2334 118.448 93.339 118.765L92.476 119.143C92.3469 118.797 92.1444 118.53 91.8684 118.342C91.5984 118.154 91.2843 118.06 90.9262 118.06C90.709 118.06 90.5182 118.098 90.3538 118.175C90.1894 118.245 90.0603 118.351 89.9663 118.492C89.8783 118.627 89.8343 118.785 89.8343 118.967C89.8343 119.178 89.9018 119.366 90.0368 119.531C90.1718 119.695 90.3773 119.818 90.6532 119.901L91.798 120.262C92.3205 120.42 92.7138 120.649 92.978 120.948C93.2422 121.242 93.3742 121.609 93.3742 122.049C93.3742 122.413 93.2774 122.736 93.0837 123.018C92.8958 123.3 92.6345 123.523 92.2999 123.687C91.9653 123.846 91.5778 123.925 91.1375 123.925ZM90.7325 124.7V116.378H91.4369V124.7H90.7325ZM96.3195 123.925C95.9731 123.925 95.6473 123.863 95.342 123.74C95.0368 123.611 94.7726 123.432 94.5495 123.203C94.3264 122.974 94.1679 122.698 94.074 122.375L94.9458 122.04C95.0573 122.352 95.2393 122.589 95.4917 122.754C95.7442 122.918 96.0201 123 96.3195 123C96.5661 123 96.7833 122.944 96.9711 122.833C97.159 122.721 97.3058 122.569 97.4114 122.375C97.523 122.181 97.5787 121.961 97.5787 121.715C97.5787 121.462 97.523 121.242 97.4114 121.054C97.3058 120.86 97.159 120.711 96.9711 120.605C96.7833 120.494 96.5661 120.438 96.3195 120.438C96.0729 120.438 95.8469 120.494 95.6414 120.605C95.436 120.717 95.2863 120.866 95.1923 121.054L94.3558 120.869L94.8665 117.259H98.3625V118.139H95.2716L95.6678 117.708L95.2892 120.473L94.9634 120.253C95.1395 120.006 95.3538 119.827 95.6062 119.716C95.8586 119.604 96.1463 119.548 96.4692 119.548C96.8977 119.548 97.2705 119.645 97.5875 119.839C97.9104 120.027 98.1599 120.285 98.336 120.614C98.518 120.937 98.609 121.304 98.609 121.715C98.609 122.131 98.5092 122.507 98.3096 122.842C98.11 123.176 97.837 123.441 97.4907 123.634C97.1502 123.828 96.7598 123.925 96.3195 123.925ZM99.5093 123.819V117.153H100.504V121.618L100.117 121.521L102.503 119.055H103.745L101.949 120.966L103.824 123.819H102.679L101.006 121.292L101.596 121.213L100.187 122.71L100.504 122.049V123.819H99.5093Z" fill="#14171F" fill-opacity="0.6"/>
<path d="M91.1375 151.811C90.7266 151.811 90.345 151.735 89.9928 151.582C89.6405 151.424 89.3411 151.209 89.0946 150.939C88.848 150.669 88.666 150.358 88.5486 150.006L89.4292 149.636C89.5877 150.041 89.8196 150.352 90.1249 150.569C90.4301 150.787 90.7824 150.895 91.1816 150.895C91.4164 150.895 91.6219 150.86 91.798 150.79C91.9741 150.713 92.1091 150.608 92.2031 150.472C92.3029 150.337 92.3528 150.182 92.3528 150.006C92.3528 149.765 92.2852 149.574 92.1502 149.433C92.0152 149.292 91.8156 149.181 91.5514 149.099L90.3186 148.711C89.8255 148.559 89.4497 148.327 89.1914 148.016C88.9331 147.699 88.804 147.329 88.804 146.906C88.804 146.536 88.895 146.213 89.077 145.937C89.2589 145.656 89.5084 145.435 89.8255 145.277C90.1483 145.118 90.5153 145.039 90.9262 145.039C91.3195 145.039 91.6776 145.11 92.0005 145.251C92.3234 145.386 92.5993 145.573 92.8283 145.814C93.0631 146.055 93.2334 146.334 93.339 146.651L92.476 147.029C92.3469 146.683 92.1444 146.416 91.8684 146.228C91.5984 146.04 91.2843 145.946 90.9262 145.946C90.709 145.946 90.5182 145.984 90.3538 146.061C90.1894 146.131 90.0603 146.237 89.9663 146.378C89.8783 146.513 89.8343 146.671 89.8343 146.853C89.8343 147.065 89.9018 147.252 90.0368 147.417C90.1718 147.581 90.3773 147.704 90.6532 147.787L91.798 148.148C92.3205 148.306 92.7138 148.535 92.978 148.835C93.2422 149.128 93.3742 149.495 93.3742 149.935C93.3742 150.299 93.2774 150.622 93.0837 150.904C92.8958 151.186 92.6345 151.409 92.2999 151.573C91.9653 151.732 91.5778 151.811 91.1375 151.811ZM90.7325 152.586V144.264H91.4369V152.586H90.7325ZM95.2364 151.705V146.025H93.9771V145.145H96.2667V151.705H95.2364ZM97.54 151.705V145.039H98.5351V149.504L98.1476 149.407L100.534 146.941H101.776L99.9792 148.852L101.855 151.705H100.71L99.037 149.178L99.627 149.099L98.2181 150.596L98.5351 149.935V151.705H97.54Z" fill="#14171F" fill-opacity="0.6"/>
<path d="M91.1375 179.697C90.7266 179.697 90.345 179.621 89.9928 179.468C89.6405 179.31 89.3411 179.095 89.0946 178.825C88.848 178.555 88.666 178.244 88.5486 177.892L89.4292 177.522C89.5877 177.927 89.8196 178.238 90.1249 178.455C90.4301 178.673 90.7824 178.781 91.1816 178.781C91.4164 178.781 91.6219 178.746 91.798 178.676C91.9741 178.599 92.1091 178.494 92.2031 178.359C92.3029 178.224 92.3528 178.068 92.3528 177.892C92.3528 177.651 92.2852 177.46 92.1502 177.319C92.0152 177.179 91.8156 177.067 91.5514 176.985L90.3186 176.597C89.8255 176.445 89.4497 176.213 89.1914 175.902C88.9331 175.585 88.804 175.215 88.804 174.792C88.804 174.422 88.895 174.099 89.077 173.824C89.2589 173.542 89.5084 173.322 89.8255 173.163C90.1483 173.005 90.5153 172.925 90.9262 172.925C91.3195 172.925 91.6776 172.996 92.0005 173.137C92.3234 173.272 92.5993 173.46 92.8283 173.7C93.0631 173.941 93.2334 174.22 93.339 174.537L92.476 174.915C92.3469 174.569 92.1444 174.302 91.8684 174.114C91.5984 173.926 91.2843 173.832 90.9262 173.832C90.709 173.832 90.5182 173.871 90.3538 173.947C90.1894 174.017 90.0603 174.123 89.9663 174.264C89.8783 174.399 89.8343 174.557 89.8343 174.739C89.8343 174.951 89.9018 175.139 90.0368 175.303C90.1718 175.467 90.3773 175.591 90.6532 175.673L91.798 176.034C92.3205 176.192 92.7138 176.421 92.978 176.721C93.2422 177.014 93.3742 177.381 93.3742 177.821C93.3742 178.185 93.2774 178.508 93.0837 178.79C92.8958 179.072 92.6345 179.295 92.2999 179.459C91.9653 179.618 91.5778 179.697 91.1375 179.697ZM90.7325 180.472V172.15H91.4369V180.472H90.7325ZM96.3195 179.697C95.9731 179.697 95.6473 179.635 95.342 179.512C95.0368 179.383 94.7726 179.204 94.5495 178.975C94.3264 178.746 94.1679 178.47 94.074 178.147L94.9458 177.813C95.0573 178.124 95.2393 178.362 95.4917 178.526C95.7442 178.69 96.0201 178.772 96.3195 178.772C96.5661 178.772 96.7833 178.717 96.9711 178.605C97.159 178.494 97.3058 178.341 97.4114 178.147C97.523 177.954 97.5787 177.733 97.5787 177.487C97.5787 177.234 97.523 177.014 97.4114 176.826C97.3058 176.633 97.159 176.483 96.9711 176.377C96.7833 176.266 96.5661 176.21 96.3195 176.21C96.0729 176.21 95.8469 176.266 95.6414 176.377C95.436 176.489 95.2863 176.639 95.1923 176.826L94.3558 176.641L94.8665 173.031H98.3625V173.912H95.2716L95.6678 173.48L95.2892 176.245L94.9634 176.025C95.1395 175.778 95.3538 175.599 95.6062 175.488C95.8586 175.376 96.1463 175.321 96.4692 175.321C96.8977 175.321 97.2705 175.417 97.5875 175.611C97.9104 175.799 98.1599 176.057 98.336 176.386C98.518 176.709 98.609 177.076 98.609 177.487C98.609 177.904 98.5092 178.279 98.3096 178.614C98.11 178.949 97.837 179.213 97.4907 179.407C97.1502 179.6 96.7598 179.697 96.3195 179.697ZM102.089 179.697C101.567 179.697 101.109 179.556 100.716 179.274C100.322 178.987 100.014 178.59 99.7911 178.086C99.5739 177.575 99.4653 176.982 99.4653 176.307C99.4653 175.626 99.5739 175.033 99.7911 174.528C100.014 174.023 100.319 173.63 100.707 173.348C101.1 173.066 101.558 172.925 102.081 172.925C102.603 172.925 103.058 173.066 103.446 173.348C103.839 173.63 104.144 174.026 104.361 174.537C104.584 175.042 104.696 175.632 104.696 176.307C104.696 176.982 104.587 177.575 104.37 178.086C104.153 178.59 103.848 178.987 103.454 179.274C103.067 179.556 102.612 179.697 102.089 179.697ZM102.089 178.746C102.412 178.746 102.691 178.646 102.926 178.447C103.161 178.247 103.343 177.965 103.472 177.601C103.601 177.237 103.666 176.806 103.666 176.307C103.666 175.808 103.601 175.376 103.472 175.012C103.343 174.648 103.161 174.367 102.926 174.167C102.691 173.967 102.409 173.868 102.081 173.868C101.758 173.868 101.479 173.967 101.244 174.167C101.009 174.367 100.827 174.648 100.698 175.012C100.569 175.376 100.504 175.808 100.504 176.307C100.504 176.8 100.569 177.231 100.698 177.601C100.827 177.965 101.009 178.247 101.244 178.447C101.485 178.646 101.767 178.746 102.089 178.746ZM108.217 179.697C107.694 179.697 107.236 179.556 106.843 179.274C106.45 178.987 106.142 178.59 105.918 178.086C105.701 177.575 105.593 176.982 105.593 176.307C105.593 175.626 105.701 175.033 105.918 174.528C106.142 174.023 106.447 173.63 106.834 173.348C107.228 173.066 107.685 172.925 108.208 172.925C108.73 172.925 109.185 173.066 109.573 173.348C109.966 173.63 110.272 174.026 110.489 174.537C110.712 175.042 110.823 175.632 110.823 176.307C110.823 176.982 110.715 177.575 110.498 178.086C110.28 178.59 109.975 178.987 109.582 179.274C109.194 179.556 108.739 179.697 108.217 179.697ZM108.217 178.746C108.54 178.746 108.819 178.646 109.053 178.447C109.288 178.247 109.47 177.965 109.599 177.601C109.728 177.237 109.793 176.806 109.793 176.307C109.793 175.808 109.728 175.376 109.599 175.012C109.47 174.648 109.288 174.367 109.053 174.167C108.819 173.967 108.537 173.868 108.208 173.868C107.885 173.868 107.606 173.967 107.371 174.167C107.137 174.367 106.955 174.648 106.825 175.012C106.696 175.376 106.632 175.808 106.632 176.307C106.632 176.8 106.696 177.231 106.825 177.601C106.955 177.965 107.137 178.247 107.371 178.447C107.612 178.646 107.894 178.746 108.217 178.746Z" fill="#14171F" fill-opacity="0.6"/>
<path d="M121.137 64.6534H585.699" stroke="#F0F0F0" stroke-width="0.733828"/>
<path d="M121.137 92.5438H585.699" stroke="#F0F0F0" stroke-width="0.733828"/>
<path d="M121.137 120.426H585.699" stroke="#F0F0F0" stroke-width="0.733828"/>
<path d="M121.137 148.312H585.699" stroke="#F0F0F0" stroke-width="0.733828"/>
<path d="M121.137 176.196H585.699" stroke="#F0F0F0" stroke-width="0.733828"/>
<path d="M137.331 90.3427C137.331 87.911 139.302 85.9397 141.734 85.9397C144.166 85.9397 146.137 87.911 146.137 90.3427V194.546H137.331V90.3427Z" fill="#0E9DA5"/>
<path d="M175.488 138.773C175.488 136.342 177.46 134.37 179.891 134.37C182.323 134.37 184.294 136.342 184.294 138.773V194.544H175.488V138.773Z" fill="#0E9DA5"/>
<path d="M213.646 75.6657C213.646 73.234 215.617 71.2627 218.048 71.2627C220.48 71.2627 222.451 73.234 222.451 75.6657V194.546H213.646V75.6657Z" fill="#0E9DA5"/>
<path d="M251.808 110.887C251.808 108.455 253.779 106.484 256.211 106.484C258.642 106.484 260.614 108.455 260.614 110.887V194.543H251.808V110.887Z" fill="#0E9DA5"/>
<path d="M289.965 128.5C289.965 126.068 291.936 124.097 294.368 124.097C296.8 124.097 298.771 126.068 298.771 128.5V194.545H289.965V128.5Z" fill="#0E9DA5"/>
<path d="M328.122 66.8582C328.122 64.4265 330.093 62.4552 332.525 62.4552C334.957 62.4552 336.928 64.4265 336.928 66.8582V194.544H328.122V66.8582Z" fill="#1C1E23"/>
<path d="M366.279 110.887C366.279 108.455 368.251 106.484 370.682 106.484C373.114 106.484 375.085 108.455 375.085 110.887V194.543H366.279V110.887Z" fill="#0E9DA5"/>
<g filter="url(#filter0_d_1_1789)">
<path d="M319.319 66.707C319.319 67.7511 319.874 68.7166 320.776 69.2426L324.457 71.3896C326.4 72.5222 326.399 75.3284 324.457 76.4609L320.776 78.6073C319.874 79.1332 319.319 80.0988 319.319 81.143V88.869C319.319 90.4901 318.005 91.8043 316.384 91.8043H252.542C250.921 91.8043 249.606 90.4901 249.606 88.869V59.516C249.606 57.8949 250.921 56.5807 252.542 56.5807H316.384C318.005 56.5807 319.319 57.8949 319.319 59.516V66.707Z" fill="#1C1E23"/>
</g>
<path d="M266.025 67.6045C265.683 67.6045 265.365 67.5409 265.071 67.4137C264.778 67.2817 264.528 67.1031 264.323 66.878C264.117 66.653 263.966 66.3937 263.868 66.1002L264.602 65.792C264.734 66.1295 264.927 66.3888 265.181 66.5698C265.436 66.7509 265.729 66.8414 266.062 66.8414C266.258 66.8414 266.429 66.812 266.576 66.7533C266.722 66.6897 266.835 66.6016 266.913 66.4891C266.996 66.3766 267.038 66.247 267.038 66.1002C267.038 65.8996 266.982 65.7406 266.869 65.6232C266.757 65.5058 266.59 65.4128 266.37 65.3443L265.343 65.0215C264.932 64.8943 264.619 64.701 264.404 64.4417C264.188 64.1776 264.081 63.8694 264.081 63.5171C264.081 63.2089 264.156 62.9398 264.308 62.7099C264.46 62.4751 264.668 62.2916 264.932 62.1595C265.201 62.0274 265.507 61.9614 265.849 61.9614C266.177 61.9614 266.475 62.0201 266.744 62.1375C267.013 62.25 267.243 62.4066 267.434 62.6072C267.63 62.8077 267.772 63.0401 267.86 63.3043L267.141 63.6199C267.033 63.3312 266.864 63.1086 266.634 62.9521C266.409 62.7955 266.148 62.7172 265.849 62.7172C265.668 62.7172 265.509 62.749 265.372 62.8126C265.235 62.8713 265.128 62.9594 265.049 63.0768C264.976 63.1893 264.939 63.3214 264.939 63.4731C264.939 63.6492 264.995 63.8058 265.108 63.9427C265.22 64.0797 265.392 64.1825 265.622 64.2509L266.576 64.5518C267.011 64.6839 267.339 64.8747 267.559 65.1242C267.779 65.3688 267.889 65.6746 267.889 66.0415C267.889 66.3448 267.808 66.6139 267.647 66.8487C267.49 67.0835 267.273 67.2694 266.994 67.4064C266.715 67.5385 266.392 67.6045 266.025 67.6045ZM269.751 67.6045C269.482 67.6045 269.245 67.5581 269.039 67.4651C268.838 67.3673 268.682 67.2352 268.569 67.0688C268.457 66.8976 268.401 66.697 268.401 66.4671C268.401 66.2518 268.447 66.0586 268.54 65.8874C268.638 65.7162 268.787 65.5718 268.988 65.4544C269.188 65.337 269.44 65.2538 269.744 65.2049L271.123 64.9774V65.6305L269.905 65.8434C269.685 65.8825 269.523 65.9534 269.421 66.0562C269.318 66.154 269.267 66.2812 269.267 66.4378C269.267 66.5894 269.323 66.7142 269.435 66.812C269.553 66.905 269.702 66.9514 269.883 66.9514C270.108 66.9514 270.304 66.9025 270.47 66.8047C270.641 66.7068 270.773 66.5772 270.866 66.4157C270.959 66.2494 271.006 66.0659 271.006 65.8654V64.8453C271.006 64.6497 270.932 64.4907 270.786 64.3684C270.644 64.2412 270.453 64.1776 270.213 64.1776C269.993 64.1776 269.8 64.2363 269.633 64.3537C269.472 64.4662 269.352 64.613 269.274 64.794L268.584 64.4491C268.657 64.2534 268.777 64.0822 268.944 63.9354C269.11 63.7837 269.303 63.6663 269.523 63.5832C269.748 63.5 269.986 63.4584 270.235 63.4584C270.548 63.4584 270.825 63.5171 271.064 63.6345C271.309 63.7519 271.497 63.9158 271.629 64.1262C271.766 64.3317 271.835 64.5714 271.835 64.8453V67.5165H271.042V66.7973L271.211 66.8193C271.118 66.9808 270.998 67.1202 270.852 67.2376C270.71 67.355 270.546 67.4455 270.36 67.5091C270.179 67.5727 269.976 67.6045 269.751 67.6045ZM273.738 67.5165L272.182 63.5465H273.085L274.281 66.7827H273.951L275.147 63.5465H276.057L274.494 67.5165H273.738ZM276.474 67.5165V63.5465H277.303V67.5165H276.474ZM276.474 63.0034V62.0495H277.303V63.0034H276.474ZM278.126 67.5165V63.5465H278.918V64.3243L278.823 64.2216C278.921 63.9721 279.077 63.7837 279.293 63.6565C279.508 63.5245 279.757 63.4584 280.041 63.4584C280.335 63.4584 280.594 63.522 280.819 63.6492C281.044 63.7764 281.22 63.9525 281.347 64.1776C281.475 64.4026 281.538 64.6619 281.538 64.9554V67.5165H280.716V65.1756C280.716 64.975 280.68 64.8062 280.606 64.6692C280.533 64.5274 280.428 64.4197 280.291 64.3463C280.159 64.2681 280.007 64.2289 279.836 64.2289C279.665 64.2289 279.51 64.2681 279.373 64.3463C279.241 64.4197 279.139 64.5274 279.065 64.6692C278.992 64.8111 278.955 64.9799 278.955 65.1756V67.5165H278.126ZM284.194 69.1309C283.906 69.1309 283.639 69.0844 283.394 68.9915C283.15 68.8985 282.939 68.7689 282.763 68.6025C282.587 68.4411 282.455 68.2503 282.367 68.0302L283.13 67.7146C283.199 67.9005 283.323 68.0546 283.504 68.1769C283.69 68.2992 283.918 68.3604 284.187 68.3604C284.397 68.3604 284.586 68.3188 284.752 68.2356C284.918 68.1574 285.05 68.0399 285.148 67.8834C285.246 67.7317 285.295 67.5483 285.295 67.333V66.4378L285.442 66.6065C285.305 66.8609 285.114 67.0542 284.869 67.1863C284.63 67.3183 284.358 67.3844 284.055 67.3844C283.688 67.3844 283.358 67.2988 283.064 67.1276C282.771 66.9563 282.538 66.7215 282.367 66.4231C282.201 66.1247 282.117 65.7895 282.117 65.4177C282.117 65.041 282.201 64.7059 282.367 64.4124C282.538 64.1189 282.768 63.8865 283.057 63.7153C283.345 63.544 283.676 63.4584 284.047 63.4584C284.351 63.4584 284.62 63.5245 284.855 63.6565C285.094 63.7837 285.29 63.9696 285.442 64.2143L285.332 64.4197V63.5465H286.117V67.333C286.117 67.6755 286.034 67.9812 285.867 68.2503C285.706 68.5243 285.481 68.7395 285.192 68.8961C284.904 69.0526 284.571 69.1309 284.194 69.1309ZM284.15 66.6139C284.37 66.6139 284.566 66.5625 284.737 66.4598C284.908 66.3521 285.043 66.2103 285.141 66.0341C285.244 65.8531 285.295 65.6501 285.295 65.4251C285.295 65.2 285.244 64.997 285.141 64.816C285.038 64.635 284.901 64.4931 284.73 64.3904C284.559 64.2827 284.365 64.2289 284.15 64.2289C283.925 64.2289 283.725 64.2827 283.548 64.3904C283.372 64.4931 283.233 64.635 283.13 64.816C283.032 64.9921 282.983 65.1951 282.983 65.4251C282.983 65.6452 283.032 65.8458 283.13 66.0268C283.233 66.2078 283.372 66.3521 283.548 66.4598C283.725 66.5625 283.925 66.6139 284.15 66.6139ZM288.408 67.6045C288.002 67.6045 287.645 67.5042 287.337 67.3037C287.034 67.1031 286.821 66.834 286.699 66.4965L287.337 66.1956C287.445 66.4206 287.591 66.5992 287.777 66.7313C287.968 66.8634 288.178 66.9294 288.408 66.9294C288.604 66.9294 288.763 66.8854 288.885 66.7973C289.008 66.7093 289.069 66.5894 289.069 66.4378C289.069 66.3399 289.042 66.2616 288.988 66.2029C288.934 66.1393 288.866 66.088 288.783 66.0488C288.704 66.0097 288.624 65.9803 288.54 65.9608L287.917 65.7846C287.574 65.6868 287.317 65.54 287.146 65.3443C286.98 65.1438 286.897 64.9114 286.897 64.6472C286.897 64.4075 286.958 64.1996 287.08 64.0235C287.202 63.8424 287.371 63.703 287.587 63.6052C287.802 63.5073 288.044 63.4584 288.313 63.4584C288.675 63.4584 288.998 63.5489 289.282 63.7299C289.565 63.906 289.766 64.1531 289.883 64.4711L289.245 64.772C289.167 64.5812 289.042 64.4295 288.871 64.317C288.704 64.2045 288.516 64.1482 288.306 64.1482C288.125 64.1482 287.98 64.1922 287.873 64.2803C287.765 64.3635 287.711 64.4735 287.711 64.6105C287.711 64.7035 287.736 64.7817 287.785 64.8453C287.834 64.9041 287.897 64.953 287.975 64.9921C288.054 65.0264 288.134 65.0557 288.218 65.0802L288.863 65.271C289.191 65.3639 289.443 65.5107 289.619 65.7113C289.795 65.9069 289.883 66.1418 289.883 66.4157C289.883 66.6506 289.82 66.8585 289.693 67.0395C289.57 67.2156 289.399 67.355 289.179 67.4578C288.959 67.5556 288.702 67.6045 288.408 67.6045Z" fill="white"/>
<path d="M267.028 84.1171C266.541 84.1171 266.1 84.0246 265.702 83.8397C265.305 83.6547 264.97 83.4082 264.696 83.1C264.422 82.7849 264.226 82.439 264.11 82.0623L264.85 81.785C265.028 82.3055 265.305 82.7027 265.682 82.9767C266.059 83.2438 266.507 83.3774 267.028 83.3774C267.356 83.3774 267.644 83.326 267.891 83.2233C268.144 83.1137 268.339 82.963 268.476 82.7712C268.613 82.5794 268.682 82.3568 268.682 82.1034C268.682 81.7267 268.579 81.4356 268.374 81.2302C268.168 81.0247 267.874 80.8672 267.49 80.7576L266.113 80.3466C265.572 80.1891 265.154 79.9254 264.86 79.5556C264.572 79.1857 264.428 78.7645 264.428 78.2919C264.428 77.8878 264.528 77.5317 264.726 77.2235C264.925 76.9084 265.196 76.6619 265.538 76.4838C265.887 76.3057 266.281 76.2167 266.719 76.2167C267.178 76.2167 267.589 76.3023 267.952 76.4735C268.322 76.6379 268.634 76.8571 268.887 77.131C269.141 77.405 269.322 77.7098 269.432 78.0454L268.713 78.333C268.548 77.881 268.291 77.5385 267.942 77.3057C267.6 77.0728 267.195 76.9564 266.73 76.9564C266.435 76.9564 266.175 77.0077 265.949 77.1105C265.73 77.2132 265.559 77.3605 265.435 77.5522C265.312 77.744 265.25 77.97 265.25 78.2303C265.25 78.5453 265.35 78.8296 265.548 79.083C265.747 79.3296 266.052 79.5145 266.463 79.6378L267.675 79.9973C268.278 80.1754 268.733 80.4323 269.041 80.7679C269.35 81.1035 269.504 81.5247 269.504 82.0315C269.504 82.4425 269.397 82.8055 269.185 83.1205C268.98 83.4287 268.689 83.6719 268.312 83.8499C267.942 84.028 267.514 84.1171 267.028 84.1171ZM266.586 85.0211V75.3126H267.305V85.0211H266.586ZM271.841 83.9938V77.0591H270.402V76.3399H272.663V83.9938H271.841ZM276.691 84.1171C276.294 84.1171 275.924 84.0486 275.581 83.9116C275.246 83.7746 274.951 83.5794 274.698 83.326C274.444 83.0726 274.253 82.7712 274.122 82.4219L274.749 82.1137C274.907 82.511 275.163 82.826 275.52 83.0589C275.883 83.2849 276.273 83.3979 276.691 83.3979C277.026 83.3979 277.324 83.3191 277.585 83.1616C277.852 83.0041 278.061 82.7918 278.211 82.5247C278.362 82.2507 278.437 81.9459 278.437 81.6103C278.437 81.261 278.359 80.9528 278.201 80.6857C278.05 80.4186 277.845 80.2097 277.585 80.059C277.324 79.9015 277.03 79.8227 276.701 79.8227C276.365 79.8227 276.054 79.9015 275.766 80.059C275.485 80.2097 275.28 80.3946 275.15 80.6138L274.503 80.4905L275.078 76.3399H278.951V77.0591H275.376L275.694 76.7817L275.232 80.0487L274.913 79.9049C275.153 79.6104 275.434 79.4015 275.756 79.2782C276.078 79.1481 276.407 79.083 276.742 79.083C277.235 79.083 277.67 79.1994 278.047 79.4323C278.424 79.6583 278.718 79.9631 278.93 80.3466C279.15 80.7233 279.259 81.1446 279.259 81.6103C279.259 82.0829 279.146 82.511 278.92 82.8945C278.701 83.2712 278.396 83.5691 278.006 83.7883C277.622 84.0075 277.184 84.1171 276.691 84.1171ZM280.772 83.9938V82.8637H281.593V83.9938H280.772ZM286.218 84.1171C285.615 84.1171 285.084 83.9527 284.626 83.6239C284.173 83.2883 283.821 82.826 283.567 82.237C283.314 81.6411 283.187 80.9494 283.187 80.1617C283.187 79.3741 283.314 78.6858 283.567 78.0967C283.821 77.5009 284.173 77.0386 284.626 76.7098C285.078 76.381 285.605 76.2167 286.208 76.2167C286.81 76.2167 287.338 76.381 287.79 76.7098C288.242 77.0386 288.595 77.5009 288.848 78.0967C289.101 78.6858 289.228 79.3741 289.228 80.1617C289.228 80.9494 289.101 81.6411 288.848 82.237C288.601 82.8329 288.252 83.2952 287.8 83.6239C287.348 83.9527 286.821 84.1171 286.218 84.1171ZM286.218 83.3465C286.656 83.3465 287.04 83.213 287.369 82.9459C287.697 82.6788 287.954 82.3089 288.139 81.8363C288.324 81.3569 288.416 80.7987 288.416 80.1617C288.416 79.5248 288.324 78.97 288.139 78.4974C287.954 78.018 287.697 77.6481 287.369 77.3879C287.04 77.1207 286.653 76.9872 286.208 76.9872C285.769 76.9872 285.386 77.1207 285.057 77.3879C284.728 77.6481 284.471 78.018 284.287 78.4974C284.102 78.97 284.009 79.5248 284.009 80.1617C284.009 80.7918 284.102 81.3466 284.287 81.826C284.471 82.3055 284.728 82.6788 285.057 82.9459C285.393 83.213 285.78 83.3465 286.218 83.3465ZM292.787 84.1171C292.39 84.1171 292.023 84.0486 291.688 83.9116C291.352 83.7746 291.058 83.5794 290.804 83.326C290.558 83.0726 290.369 82.7712 290.239 82.4219L290.897 82.1137C291.054 82.511 291.301 82.826 291.636 83.0589C291.972 83.2849 292.356 83.3979 292.787 83.3979C293.13 83.3979 293.434 83.3328 293.701 83.2027C293.969 83.0657 294.177 82.8705 294.328 82.6171C294.479 82.3637 294.554 82.0555 294.554 81.6925C294.554 81.3295 294.475 81.0213 294.318 80.7679C294.167 80.5145 293.958 80.3227 293.691 80.1925C293.424 80.0624 293.119 79.9973 292.777 79.9973C292.688 79.9973 292.588 80.0008 292.479 80.0076C292.376 80.0145 292.291 80.0247 292.222 80.0384L292.058 79.6789L294.123 77.0591H290.599V76.3399H295.047V77.0591L293.116 79.4939L293.013 79.3604C293.472 79.3741 293.88 79.4837 294.236 79.6891C294.592 79.8878 294.869 80.1583 295.068 80.5008C295.273 80.8432 295.376 81.2405 295.376 81.6925C295.376 82.1445 295.266 82.5555 295.047 82.9253C294.828 83.2883 294.523 83.5794 294.133 83.7986C293.743 84.0109 293.294 84.1171 292.787 84.1171ZM299.592 84.1171C298.989 84.1171 298.459 83.9527 298 83.6239C297.548 83.2883 297.195 82.826 296.941 82.237C296.688 81.6411 296.561 80.9494 296.561 80.1617C296.561 79.3741 296.688 78.6858 296.941 78.0967C297.195 77.5009 297.548 77.0386 298 76.7098C298.452 76.381 298.979 76.2167 299.582 76.2167C300.185 76.2167 300.712 76.381 301.164 76.7098C301.616 77.0386 301.969 77.5009 302.222 78.0967C302.476 78.6858 302.602 79.3741 302.602 80.1617C302.602 80.9494 302.476 81.6411 302.222 82.237C301.976 82.8329 301.626 83.2952 301.174 83.6239C300.722 83.9527 300.195 84.1171 299.592 84.1171ZM299.592 83.3465C300.03 83.3465 300.414 83.213 300.743 82.9459C301.071 82.6788 301.328 82.3089 301.513 81.8363C301.698 81.3569 301.791 80.7987 301.791 80.1617C301.791 79.5248 301.698 78.97 301.513 78.4974C301.328 78.018 301.071 77.6481 300.743 77.3879C300.414 77.1207 300.027 76.9872 299.582 76.9872C299.143 76.9872 298.76 77.1207 298.431 77.3879C298.102 77.6481 297.846 78.018 297.661 78.4974C297.476 78.97 297.383 79.5248 297.383 80.1617C297.383 80.7918 297.476 81.3466 297.661 81.826C297.846 82.3055 298.102 82.6788 298.431 82.9459C298.767 83.213 299.154 83.3465 299.592 83.3465Z" fill="white"/>
<g filter="url(#filter1_d_1_1789)">
<rect x="35.2764" y="44.187" width="146.064" height="251.317" rx="4.29601" fill="white" shape-rendering="crispEdges"/>
<path d="M162.87 58.9707C162.397 58.9707 162.011 59.3735 162.011 59.8657C162.011 60.358 162.397 60.7607 162.87 60.7607C163.343 60.7607 163.729 60.358 163.729 59.8657C163.729 59.3735 163.343 58.9707 162.87 58.9707Z" stroke="#1A202C" stroke-width="0.644402"/>
<path d="M168.884 58.9707C168.411 58.9707 168.024 59.3735 168.024 59.8657C168.024 60.358 168.411 60.7607 168.884 60.7607C169.356 60.7607 169.743 60.358 169.743 59.8657C169.743 59.3735 169.356 58.9707 168.884 58.9707Z" stroke="#1A202C" stroke-width="0.644402"/>
<path d="M165.877 58.9707C165.404 58.9707 165.018 59.3735 165.018 59.8657C165.018 60.358 165.404 60.7607 165.877 60.7607C166.349 60.7607 166.736 60.358 166.736 59.8657C166.736 59.3735 166.349 58.9707 165.877 58.9707Z" stroke="#1A202C" stroke-width="0.644402"/>
<path d="M48.4994 62.5783C48.1374 62.5783 47.8006 62.5119 47.489 62.379C47.1819 62.2461 46.9139 62.0628 46.6847 61.8291C46.4602 61.5908 46.2838 61.3113 46.1555 60.9905C46.0272 60.6698 45.963 60.3169 45.963 59.932C45.963 59.5516 46.0249 59.2011 46.1486 58.8803C46.2769 58.555 46.4556 58.2754 46.6847 58.0417C46.9139 57.8035 47.1819 57.6202 47.489 57.4919C47.796 57.359 48.1328 57.2925 48.4994 57.2925C48.8614 57.2925 49.1844 57.3544 49.4686 57.4781C49.7572 57.6018 50.0001 57.7645 50.1972 57.9661C50.3942 58.1632 50.5363 58.3786 50.6233 58.6123L49.8947 58.9559C49.7847 58.681 49.6083 58.4587 49.3655 58.2892C49.1272 58.1151 48.8385 58.028 48.4994 58.028C48.1603 58.028 47.8601 58.1082 47.5989 58.2686C47.3377 58.429 47.1338 58.6512 46.9872 58.9353C46.8451 59.2194 46.7741 59.5516 46.7741 59.932C46.7741 60.3123 46.8451 60.6468 46.9872 60.9355C47.1338 61.2196 47.3377 61.4419 47.5989 61.6023C47.8601 61.7581 48.1603 61.836 48.4994 61.836C48.8385 61.836 49.1272 61.7512 49.3655 61.5817C49.6083 61.4121 49.7847 61.1899 49.8947 60.9149L50.6233 61.2586C50.5363 61.4877 50.3942 61.7031 50.1972 61.9047C50.0001 62.1063 49.7572 62.269 49.4686 62.3927C49.1844 62.5165 48.8614 62.5783 48.4994 62.5783ZM52.9712 62.5783C52.6138 62.5783 52.2861 62.4936 51.9883 62.324C51.695 62.1545 51.4613 61.923 51.2872 61.6298C51.113 61.3365 51.026 61.0043 51.026 60.6331C51.026 60.2573 51.113 59.9251 51.2872 59.6364C51.4613 59.3431 51.695 59.114 51.9883 58.9491C52.2815 58.7795 52.6092 58.6947 52.9712 58.6947C53.3378 58.6947 53.6654 58.7795 53.9541 58.9491C54.2474 59.114 54.4788 59.3431 54.6484 59.6364C54.8225 59.9251 54.9096 60.2573 54.9096 60.6331C54.9096 61.0089 54.8225 61.3434 54.6484 61.6366C54.4742 61.9299 54.2405 62.1613 53.9473 62.3309C53.654 62.4958 53.3286 62.5783 52.9712 62.5783ZM52.9712 61.8566C53.1912 61.8566 53.3859 61.8039 53.5555 61.6985C53.725 61.5931 53.8579 61.4488 53.9541 61.2655C54.0549 61.0776 54.1053 60.8668 54.1053 60.6331C54.1053 60.3994 54.0549 60.1909 53.9541 60.0076C53.8579 59.8243 53.725 59.68 53.5555 59.5746C53.3859 59.4692 53.1912 59.4165 52.9712 59.4165C52.7558 59.4165 52.5611 59.4692 52.3869 59.5746C52.2174 59.68 52.0822 59.8243 51.9814 60.0076C51.8852 60.1909 51.8371 60.3994 51.8371 60.6331C51.8371 60.8668 51.8852 61.0776 51.9814 61.2655C52.0822 61.4488 52.2174 61.5931 52.3869 61.6985C52.5611 61.8039 52.7558 61.8566 52.9712 61.8566ZM55.5304 62.4958V58.7772H56.2727V59.5058L56.1834 59.4096C56.275 59.1759 56.4217 58.9995 56.6233 58.8803C56.8249 58.7566 57.0586 58.6947 57.3244 58.6947C57.5993 58.6947 57.8422 58.7543 58.053 58.8735C58.2638 58.9926 58.4288 59.1576 58.5479 59.3684C58.6671 59.5791 58.7266 59.822 58.7266 60.097V62.4958H57.9568V60.3032C57.9568 60.1153 57.9224 59.9572 57.8537 59.8289C57.7849 59.696 57.6864 59.5952 57.5581 59.5264C57.4344 59.4531 57.2923 59.4165 57.1319 59.4165C56.9716 59.4165 56.8272 59.4531 56.6989 59.5264C56.5752 59.5952 56.4789 59.696 56.4102 59.8289C56.3415 59.9618 56.3071 60.1199 56.3071 60.3032V62.4958H55.5304ZM61.0289 62.5371C60.6393 62.5371 60.3369 62.4271 60.1215 62.2072C59.9062 61.9872 59.7985 61.6779 59.7985 61.2792V59.4783H59.1455V58.7772H59.2486C59.4227 58.7772 59.5579 58.7268 59.6541 58.626C59.7504 58.5252 59.7985 58.3877 59.7985 58.2136V57.9249H60.5752V58.7772H61.4207V59.4783H60.5752V61.2449C60.5752 61.3732 60.5958 61.4831 60.6371 61.5748C60.6783 61.6619 60.7447 61.7306 60.8364 61.781C60.928 61.8268 61.0472 61.8497 61.1938 61.8497C61.2305 61.8497 61.2717 61.8474 61.3175 61.8429C61.3634 61.8383 61.4069 61.8337 61.4481 61.8291V62.4958C61.384 62.505 61.313 62.5142 61.2351 62.5233C61.1572 62.5325 61.0884 62.5371 61.0289 62.5371ZM62.0687 62.4958V58.7772H62.811V59.5264L62.7423 59.4165C62.8247 59.1736 62.9576 58.9995 63.1409 58.8941C63.3242 58.7841 63.5442 58.7291 63.8008 58.7291H64.0276V59.4371H63.7046C63.448 59.4371 63.2395 59.5173 63.0791 59.6777C62.9233 59.8335 62.8454 60.058 62.8454 60.3513V62.4958H62.0687ZM64.4215 62.4958V58.7772H65.1982V62.4958H64.4215ZM64.4215 58.2686V57.375H65.1982V58.2686H64.4215ZM67.9554 62.5783C67.6667 62.5783 67.4032 62.5188 67.1649 62.3996C66.9312 62.2805 66.7502 62.1086 66.6219 61.8841L66.7112 61.7398V62.4958H65.9689V57.2925H66.7456V59.5471L66.6219 59.3684C66.7594 59.1576 66.9427 58.9926 67.1718 58.8735C67.4009 58.7543 67.6621 58.6947 67.9554 58.6947C68.3082 58.6947 68.6244 58.7795 68.9039 58.9491C69.188 59.1186 69.4103 59.35 69.5707 59.6433C69.7356 59.9366 69.8181 60.2665 69.8181 60.6331C69.8181 60.9997 69.7356 61.3296 69.5707 61.6229C69.4103 61.9162 69.1903 62.1499 68.9108 62.324C68.6313 62.4936 68.3128 62.5783 67.9554 62.5783ZM67.8798 61.8566C68.0997 61.8566 68.2945 61.8039 68.464 61.6985C68.6336 61.5931 68.7665 61.4488 68.8627 61.2655C68.9635 61.0776 69.0139 60.8668 69.0139 60.6331C69.0139 60.3994 68.9635 60.1909 68.8627 60.0076C68.7665 59.8243 68.6336 59.68 68.464 59.5746C68.2945 59.4692 68.0997 59.4165 67.8798 59.4165C67.6644 59.4165 67.4696 59.4692 67.2955 59.5746C67.126 59.68 66.9908 59.8243 66.89 60.0076C66.7937 60.1909 66.7456 60.3994 66.7456 60.6331C66.7456 60.8668 66.7937 61.0776 66.89 61.2655C66.9908 61.4488 67.126 61.5931 67.2955 61.6985C67.4696 61.8039 67.6644 61.8566 67.8798 61.8566ZM71.7628 62.5783C71.4833 62.5783 71.2381 62.5165 71.0273 62.3927C70.8165 62.2644 70.6516 62.088 70.5324 61.8635C70.4179 61.6344 70.3606 61.3709 70.3606 61.073V58.7772H71.1373V61.0043C71.1373 61.1738 71.1717 61.3228 71.2404 61.4511C71.3092 61.5794 71.4054 61.6802 71.5291 61.7535C71.6528 61.8222 71.7949 61.8566 71.9553 61.8566C72.1202 61.8566 72.2646 61.8199 72.3883 61.7466C72.512 61.6733 72.6083 61.5702 72.677 61.4373C72.7503 61.3044 72.787 61.1486 72.787 60.9699V58.7772H73.5568V62.4958H72.8214V61.7672L72.9038 61.8635C72.8168 62.0926 72.6724 62.269 72.4708 62.3927C72.2692 62.5165 72.0332 62.5783 71.7628 62.5783ZM75.9347 62.5371C75.5452 62.5371 75.2427 62.4271 75.0274 62.2072C74.812 61.9872 74.7043 61.6779 74.7043 61.2792V59.4783H74.0513V58.7772H74.1544C74.3285 58.7772 74.4637 58.7268 74.56 58.626C74.6562 58.5252 74.7043 58.3877 74.7043 58.2136V57.9249H75.481V58.7772H76.3265V59.4783H75.481V61.2449C75.481 61.3732 75.5016 61.4831 75.5429 61.5748C75.5841 61.6619 75.6506 61.7306 75.7422 61.781C75.8339 61.8268 75.953 61.8497 76.0996 61.8497C76.1363 61.8497 76.1775 61.8474 76.2234 61.8429C76.2692 61.8383 76.3127 61.8337 76.354 61.8291V62.4958C76.2898 62.505 76.2188 62.5142 76.1409 62.5233C76.063 62.5325 75.9942 62.5371 75.9347 62.5371ZM76.9745 62.4958V58.7772H77.7512V62.4958H76.9745ZM76.9745 58.2686V57.375H77.7512V58.2686H76.9745ZM80.3159 62.5783C79.9584 62.5783 79.6308 62.4936 79.3329 62.324C79.0397 62.1545 78.8059 61.923 78.6318 61.6298C78.4577 61.3365 78.3706 61.0043 78.3706 60.6331C78.3706 60.2573 78.4577 59.9251 78.6318 59.6364C78.8059 59.3431 79.0397 59.114 79.3329 58.9491C79.6262 58.7795 79.9538 58.6947 80.3159 58.6947C80.6824 58.6947 81.0101 58.7795 81.2988 58.9491C81.5921 59.114 81.8235 59.3431 81.993 59.6364C82.1671 59.9251 82.2542 60.2573 82.2542 60.6331C82.2542 61.0089 82.1671 61.3434 81.993 61.6366C81.8189 61.9299 81.5852 62.1613 81.2919 62.3309C80.9986 62.4958 80.6733 62.5783 80.3159 62.5783ZM80.3159 61.8566C80.5358 61.8566 80.7306 61.8039 80.9001 61.6985C81.0697 61.5931 81.2026 61.4488 81.2988 61.2655C81.3996 61.0776 81.45 60.8668 81.45 60.6331C81.45 60.3994 81.3996 60.1909 81.2988 60.0076C81.2026 59.8243 81.0697 59.68 80.9001 59.5746C80.7306 59.4692 80.5358 59.4165 80.3159 59.4165C80.1005 59.4165 79.9057 59.4692 79.7316 59.5746C79.562 59.68 79.4269 59.8243 79.3261 60.0076C79.2298 60.1909 79.1817 60.3994 79.1817 60.6331C79.1817 60.8668 79.2298 61.0776 79.3261 61.2655C79.4269 61.4488 79.562 61.5931 79.7316 61.6985C79.9057 61.8039 80.1005 61.8566 80.3159 61.8566ZM82.875 62.4958V58.7772H83.6174V59.5058L83.528 59.4096C83.6197 59.1759 83.7663 58.9995 83.9679 58.8803C84.1696 58.7566 84.4033 58.6947 84.6691 58.6947C84.944 58.6947 85.1869 58.7543 85.3977 58.8735C85.6085 58.9926 85.7734 59.1576 85.8926 59.3684C86.0117 59.5791 86.0713 59.822 86.0713 60.097V62.4958H85.3014V60.3032C85.3014 60.1153 85.2671 59.9572 85.1983 59.8289C85.1296 59.696 85.0311 59.5952 84.9028 59.5264C84.779 59.4531 84.637 59.4165 84.4766 59.4165C84.3162 59.4165 84.1719 59.4531 84.0436 59.5264C83.9198 59.5952 83.8236 59.696 83.7549 59.8289C83.6861 59.9618 83.6518 60.1199 83.6518 60.3032V62.4958H82.875ZM88.1398 62.5783C87.7595 62.5783 87.425 62.4844 87.1363 62.2965C86.8521 62.1086 86.6528 61.8566 86.5383 61.5404L87.1363 61.2586C87.2371 61.4694 87.3745 61.6366 87.5487 61.7604C87.7274 61.8841 87.9244 61.946 88.1398 61.946C88.3231 61.946 88.472 61.9047 88.5866 61.8222C88.7012 61.7398 88.7584 61.6275 88.7584 61.4854C88.7584 61.3938 88.7332 61.3205 88.6828 61.2655C88.6324 61.2059 88.5683 61.1578 88.4904 61.1211C88.417 61.0845 88.3414 61.057 88.2635 61.0386L87.6793 60.8737C87.3585 60.782 87.1179 60.6446 86.9575 60.4613C86.8017 60.2734 86.7238 60.0557 86.7238 59.8083C86.7238 59.5837 86.7811 59.389 86.8957 59.224C87.0102 59.0545 87.1683 58.9239 87.37 58.8322C87.5716 58.7406 87.7984 58.6947 88.0505 58.6947C88.3895 58.6947 88.692 58.7795 88.9578 58.9491C89.2235 59.114 89.4114 59.3454 89.5214 59.6433L88.9234 59.9251C88.8501 59.7464 88.7332 59.6043 88.5728 59.499C88.417 59.3936 88.2406 59.3409 88.0436 59.3409C87.874 59.3409 87.7388 59.3821 87.638 59.4646C87.5372 59.5425 87.4868 59.6456 87.4868 59.7739C87.4868 59.861 87.5097 59.9343 87.5555 59.9939C87.6014 60.0488 87.6609 60.0947 87.7343 60.1313C87.8076 60.1634 87.8832 60.1909 87.9611 60.2138L88.566 60.3925C88.873 60.4796 89.109 60.6171 89.274 60.8049C89.4389 60.9882 89.5214 61.2082 89.5214 61.4648C89.5214 61.6848 89.4618 61.8795 89.3427 62.0491C89.2281 62.214 89.0677 62.3446 88.8615 62.4409C88.6553 62.5325 88.4148 62.5783 88.1398 62.5783Z" fill="#1A202C"/>
<path d="M152.127 126.243C153.322 126.243 153.92 126.243 154.396 126.499C154.795 126.713 155.155 127.1 155.34 127.514C155.561 128.008 155.52 128.564 155.439 129.677C154.962 136.223 153.126 142.6 150.049 148.398C149.526 149.383 149.264 149.876 148.815 150.176C148.438 150.429 147.928 150.565 147.475 150.534C146.936 150.498 146.43 150.18 145.418 149.545L143.336 148.237C142.317 147.598 141.808 147.278 141.548 146.869C141.305 146.486 141.202 146.114 141.214 145.661C141.226 145.176 141.524 144.591 142.119 143.42C144.298 139.131 145.641 134.466 146.076 129.675C146.195 128.367 146.255 127.713 146.502 127.296C146.733 126.906 147.017 126.646 147.427 126.451C147.865 126.243 148.466 126.243 149.669 126.243H152.127Z" fill="#0E9DA5"/>
<path d="M143.765 151.991C144.731 152.693 145.215 153.044 145.45 153.531C145.647 153.939 145.711 154.464 145.617 154.907C145.506 155.436 145.146 155.863 144.427 156.715C139.947 162.026 134.341 166.294 127.999 169.201C121.658 172.107 114.765 173.568 107.818 173.496C106.703 173.485 106.145 173.479 105.671 173.218C105.274 172.999 104.918 172.609 104.738 172.193C104.522 171.697 104.572 171.102 104.671 169.911L104.875 167.461C104.975 166.262 105.025 165.663 105.269 165.244C105.497 164.852 105.779 164.59 106.188 164.392C106.624 164.18 107.28 164.176 108.593 164.166C113.938 164.125 119.228 162.955 124.111 160.717C128.993 158.479 133.332 155.235 136.852 151.212C137.716 150.224 138.148 149.73 138.594 149.538C139.01 149.358 139.393 149.314 139.839 149.397C140.316 149.486 140.802 149.84 141.775 150.546L143.765 151.991Z" fill="#FFC700"/>
<path d="M101.702 169.561C101.522 170.743 101.432 171.333 101.107 171.765C100.835 172.128 100.398 172.425 99.9608 172.546C99.4397 172.689 98.8959 172.565 97.8083 172.318C93.069 171.238 88.5245 169.433 84.3356 166.967C83.3742 166.401 82.8936 166.118 82.613 165.656C82.3776 165.268 82.2639 164.753 82.3144 164.302C82.3747 163.765 82.7144 163.273 83.3938 162.29L84.7916 160.268C85.4753 159.278 85.8172 158.784 86.2375 158.542C86.6307 158.316 87.0064 158.23 87.4589 158.261C87.9426 158.295 88.5143 158.618 89.6576 159.264C92.6581 160.959 95.8757 162.236 99.2213 163.062C100.496 163.377 101.134 163.534 101.509 163.841C101.86 164.128 102.074 164.449 102.205 164.883C102.345 165.348 102.254 165.942 102.073 167.131L101.702 169.561Z" fill="#A8E6EA"/>
<path d="M81.1361 160.62C80.3951 161.558 80.0246 162.027 79.5286 162.242C79.1124 162.422 78.5859 162.464 78.1463 162.353C77.6223 162.22 77.211 161.843 76.3884 161.089C70.6542 155.837 66.2909 149.237 63.7085 141.864C60.7466 133.408 60.2497 124.284 62.2759 115.556C64.3021 106.828 68.7679 98.8563 75.1524 92.5699C80.7187 87.0892 87.5434 83.0865 95.0052 80.8976C96.0756 80.5835 96.6109 80.4265 97.1398 80.538C97.5836 80.6315 98.0376 80.9015 98.3318 81.2467C98.6824 81.6582 98.8085 82.2422 99.0606 83.4102L99.5795 85.8134C99.8332 86.9888 99.9601 87.5765 99.8489 88.0485C99.7449 88.49 99.5508 88.8231 99.2181 89.1315C98.8624 89.461 98.2358 89.6571 96.9827 90.0492C91.248 91.8436 86.005 94.9807 81.7 99.2196C76.5763 104.265 72.9924 110.662 71.3663 117.667C69.7402 124.671 70.139 131.993 72.516 138.779C74.5132 144.481 77.8379 149.608 82.1955 153.745C83.1477 154.649 83.6238 155.101 83.798 155.554C83.9608 155.977 83.9883 156.362 83.8872 156.804C83.7791 157.276 83.4062 157.748 82.6606 158.692L81.1361 160.62Z" fill="#EB7CA6"/>
<path d="M102.286 82.8391C102.122 81.6554 102.04 81.0636 102.228 80.5568C102.386 80.1315 102.72 79.7222 103.104 79.4819C103.563 79.1956 104.119 79.1593 105.233 79.0866C115.377 78.4247 125.468 81.0537 134 86.5809C134.936 87.1875 135.405 87.4908 135.665 87.9644C135.884 88.3618 135.975 88.882 135.906 89.3302C135.822 89.8643 135.462 90.3408 134.741 91.2939L133.258 93.2547C132.533 94.2138 132.17 94.6933 131.74 94.9169C131.337 95.126 130.958 95.1962 130.507 95.1451C130.025 95.0905 129.468 94.7435 128.353 94.0493C121.822 89.9821 114.204 87.9974 106.518 88.3609C105.206 88.4229 104.55 88.4539 104.103 88.2665C103.685 88.0912 103.388 87.845 103.139 87.466C102.872 87.0609 102.789 86.4654 102.624 85.2743L102.286 82.8391Z" fill="#FFACC8"/>
<path d="M137.047 93.1639C137.831 92.2618 138.222 91.8108 138.728 91.6191C139.152 91.4583 139.68 91.4405 140.114 91.5723C140.631 91.7295 141.024 92.1249 141.811 92.9158C148.981 100.123 153.636 109.454 155.083 119.516C155.242 120.621 155.321 121.173 155.136 121.681C154.98 122.107 154.648 122.518 154.265 122.76C153.808 123.048 153.212 123.09 152.02 123.174L149.567 123.346C148.368 123.43 147.768 123.472 147.316 123.295C146.894 123.13 146.592 122.89 146.334 122.517C146.058 122.118 145.953 121.47 145.743 120.174C144.512 112.578 140.997 105.534 135.669 99.9828C134.76 99.0354 134.305 98.5617 134.153 98.1015C134.009 97.671 134 97.2856 134.121 96.8486C134.251 96.3814 134.646 95.9275 135.434 95.0198L137.047 93.1639Z" fill="#06595E"/>
<rect x="45.585" y="192.401" width="5.15521" height="5.15521" rx="2.57761" fill="#EB7CA6"/>
<path d="M56.2954 196.97V193.129H58.8266V193.671H56.9037V194.774H58.7235V195.315H56.9037V196.429H58.8266V196.97H56.2954ZM59.2317 196.97V194.181H59.7885V194.784L59.7163 194.691C59.7747 194.502 59.8813 194.36 60.0359 194.263C60.1906 194.167 60.3676 194.119 60.5669 194.119C60.7903 194.119 60.9879 194.179 61.1598 194.3C61.3351 194.416 61.4519 194.573 61.5103 194.769L61.3454 194.784C61.4278 194.561 61.5533 194.394 61.7217 194.284C61.8935 194.174 62.0894 194.119 62.3094 194.119C62.5019 194.119 62.6754 194.164 62.8301 194.253C62.9882 194.343 63.1136 194.466 63.2064 194.624C63.2992 194.782 63.3456 194.963 63.3456 195.166V196.97H62.763V195.325C62.763 195.185 62.7373 195.066 62.6857 194.97C62.6376 194.87 62.5689 194.794 62.4795 194.743C62.3936 194.688 62.2922 194.66 62.1754 194.66C62.0585 194.66 61.9554 194.688 61.866 194.743C61.7767 194.794 61.7062 194.87 61.6547 194.97C61.6031 195.069 61.5773 195.188 61.5773 195.325V196.97H61V195.325C61 195.185 60.9742 195.066 60.9226 194.97C60.8745 194.87 60.8058 194.794 60.7164 194.743C60.6305 194.688 60.5274 194.66 60.4071 194.66C60.2903 194.66 60.1872 194.688 60.0978 194.743C60.0084 194.794 59.938 194.87 59.8864 194.97C59.8383 195.069 59.8143 195.188 59.8143 195.325V196.97H59.2317ZM63.866 198.001V194.181H64.4227V194.758L64.3557 194.624C64.4588 194.466 64.5963 194.343 64.7681 194.253C64.94 194.164 65.1359 194.119 65.3558 194.119C65.6205 194.119 65.8576 194.183 66.0673 194.31C66.2803 194.437 66.447 194.611 66.5673 194.831C66.691 195.051 66.7529 195.298 66.7529 195.573C66.7529 195.848 66.691 196.095 66.5673 196.315C66.447 196.535 66.2821 196.71 66.0724 196.841C65.8628 196.968 65.6239 197.032 65.3558 197.032C65.1393 197.032 64.9417 196.987 64.763 196.898C64.5877 196.808 64.452 196.68 64.3557 196.511L64.4485 196.403V198.001H63.866ZM65.2991 196.491C65.4641 196.491 65.6102 196.451 65.7373 196.372C65.8645 196.293 65.9642 196.185 66.0363 196.047C66.1119 195.906 66.1497 195.748 66.1497 195.573C66.1497 195.398 66.1119 195.241 66.0363 195.104C65.9642 194.966 65.8645 194.858 65.7373 194.779C65.6102 194.7 65.4641 194.66 65.2991 194.66C65.1376 194.66 64.9915 194.7 64.8609 194.779C64.7338 194.858 64.6324 194.966 64.5568 195.104C64.4846 195.241 64.4485 195.398 64.4485 195.573C64.4485 195.748 64.4846 195.906 64.5568 196.047C64.6324 196.185 64.7338 196.293 64.8609 196.372C64.9915 196.451 65.1376 196.491 65.2991 196.491ZM67.2165 196.97V193.067H67.799V196.97H67.2165ZM69.7225 197.032C69.4544 197.032 69.2087 196.968 68.9853 196.841C68.7654 196.714 68.5901 196.54 68.4595 196.32C68.3289 196.1 68.2636 195.851 68.2636 195.573C68.2636 195.291 68.3289 195.042 68.4595 194.825C68.5901 194.605 68.7654 194.434 68.9853 194.31C69.2053 194.183 69.451 194.119 69.7225 194.119C69.9975 194.119 70.2432 194.183 70.4597 194.31C70.6797 194.434 70.8532 194.605 70.9804 194.825C71.111 195.042 71.1763 195.291 71.1763 195.573C71.1763 195.855 71.111 196.106 70.9804 196.326C70.8498 196.546 70.6745 196.719 70.4545 196.846C70.2346 196.97 69.9906 197.032 69.7225 197.032ZM69.7225 196.491C69.8875 196.491 70.0335 196.451 70.1607 196.372C70.2879 196.293 70.3875 196.185 70.4597 196.047C70.5353 195.906 70.5731 195.748 70.5731 195.573C70.5731 195.398 70.5353 195.241 70.4597 195.104C70.3875 194.966 70.2879 194.858 70.1607 194.779C70.0335 194.7 69.8875 194.66 69.7225 194.66C69.561 194.66 69.4149 194.7 69.2843 194.779C69.1572 194.858 69.0558 194.966 68.9802 195.104C68.908 195.241 68.8719 195.398 68.8719 195.573C68.8719 195.748 68.908 195.906 68.9802 196.047C69.0558 196.185 69.1572 196.293 69.2843 196.372C69.4149 196.451 69.561 196.491 69.7225 196.491ZM71.839 198.104C71.7703 198.104 71.7015 198.097 71.6328 198.083C71.5675 198.073 71.5074 198.056 71.4524 198.032V197.532C71.4936 197.542 71.5434 197.551 71.6019 197.558C71.6603 197.568 71.717 197.573 71.772 197.573C71.9335 197.573 72.0521 197.537 72.1277 197.465C72.2067 197.396 72.2772 197.29 72.3391 197.145L72.5246 196.723L72.5143 197.212L71.308 194.181H71.9318L72.8237 196.506H72.6123L73.499 194.181H74.1279L72.8958 197.274C72.8305 197.439 72.748 197.583 72.6484 197.707C72.5521 197.834 72.437 197.932 72.303 198.001C72.1724 198.07 72.0177 198.104 71.839 198.104ZM75.6826 197.032C75.4042 197.032 75.1567 196.968 74.9402 196.841C74.7271 196.71 74.5605 196.535 74.4402 196.315C74.3199 196.092 74.2597 195.843 74.2597 195.568C74.2597 195.286 74.3199 195.037 74.4402 194.82C74.5639 194.604 74.7289 194.434 74.9351 194.31C75.1413 194.183 75.375 194.119 75.6362 194.119C75.8458 194.119 76.0331 194.155 76.1981 194.227C76.3631 194.3 76.5023 194.399 76.6157 194.526C76.7291 194.65 76.815 194.793 76.8734 194.954C76.9353 195.116 76.9662 195.288 76.9662 195.47C76.9662 195.514 76.9645 195.561 76.9611 195.609C76.9576 195.657 76.9508 195.702 76.9405 195.743H74.7186V195.279H76.6105L76.3321 195.49C76.3665 195.322 76.3545 195.173 76.2961 195.042C76.2411 194.908 76.1551 194.803 76.0383 194.727C75.9249 194.648 75.7908 194.609 75.6362 194.609C75.4815 194.609 75.3441 194.648 75.2238 194.727C75.1035 194.803 75.0107 194.913 74.9454 195.057C74.8801 195.198 74.8543 195.37 74.8681 195.573C74.8509 195.762 74.8766 195.927 74.9454 196.068C75.0176 196.209 75.1172 196.319 75.2444 196.398C75.375 196.477 75.5228 196.516 75.6877 196.516C75.8561 196.516 75.9988 196.479 76.1156 196.403C76.2359 196.327 76.3304 196.229 76.3992 196.109L76.8734 196.341C76.8184 196.472 76.7325 196.59 76.6157 196.697C76.5023 196.8 76.3648 196.882 76.2033 196.944C76.0452 197.003 75.8716 197.032 75.6826 197.032ZM78.7411 197.032C78.4627 197.032 78.2152 196.968 77.9987 196.841C77.7856 196.71 77.619 196.535 77.4987 196.315C77.3784 196.092 77.3182 195.843 77.3182 195.568C77.3182 195.286 77.3784 195.037 77.4987 194.82C77.6224 194.604 77.7874 194.434 77.9936 194.31C78.1998 194.183 78.4335 194.119 78.6947 194.119C78.9043 194.119 79.0916 194.155 79.2566 194.227C79.4216 194.3 79.5607 194.399 79.6742 194.526C79.7876 194.65 79.8735 194.793 79.9319 194.954C79.9938 195.116 80.0247 195.288 80.0247 195.47C80.0247 195.514 80.023 195.561 80.0196 195.609C80.0161 195.657 80.0093 195.702 79.9989 195.743H77.777V195.279H79.669L79.3906 195.49C79.425 195.322 79.413 195.173 79.3545 195.042C79.2996 194.908 79.2136 194.803 79.0968 194.727C78.9834 194.648 78.8493 194.609 78.6947 194.609C78.54 194.609 78.4025 194.648 78.2823 194.727C78.162 194.803 78.0692 194.913 78.0039 195.057C77.9386 195.198 77.9128 195.37 77.9265 195.573C77.9094 195.762 77.9351 195.927 78.0039 196.068C78.076 196.209 78.1757 196.319 78.3029 196.398C78.4335 196.477 78.5813 196.516 78.7462 196.516C78.9146 196.516 79.0573 196.479 79.1741 196.403C79.2944 196.327 79.3889 196.229 79.4576 196.109L79.9319 196.341C79.8769 196.472 79.791 196.59 79.6742 196.697C79.5607 196.8 79.4233 196.882 79.2617 196.944C79.1037 197.003 78.9301 197.032 78.7411 197.032ZM81.5212 197.032C81.2359 197.032 80.985 196.961 80.7685 196.82C80.5554 196.68 80.4059 196.491 80.32 196.253L80.7685 196.042C80.8441 196.2 80.9472 196.326 81.0778 196.418C81.2119 196.511 81.3597 196.558 81.5212 196.558C81.6587 196.558 81.7704 196.527 81.8563 196.465C81.9422 196.403 81.9852 196.319 81.9852 196.212C81.9852 196.143 81.9662 196.088 81.9284 196.047C81.8906 196.003 81.8425 195.966 81.7841 195.939C81.7291 195.911 81.6724 195.891 81.614 195.877L81.1758 195.753C80.9352 195.685 80.7548 195.581 80.6345 195.444C80.5176 195.303 80.4592 195.14 80.4592 194.954C80.4592 194.786 80.5022 194.64 80.5881 194.516C80.674 194.389 80.7926 194.291 80.9438 194.222C81.095 194.154 81.2651 194.119 81.4542 194.119C81.7085 194.119 81.9353 194.183 82.1347 194.31C82.334 194.434 82.4749 194.607 82.5574 194.831L82.1089 195.042C82.0539 194.908 81.9662 194.801 81.846 194.722C81.7291 194.643 81.5968 194.604 81.449 194.604C81.3218 194.604 81.2205 194.635 81.1449 194.697C81.0692 194.755 81.0314 194.832 81.0314 194.929C81.0314 194.994 81.0486 195.049 81.083 195.093C81.1174 195.135 81.162 195.169 81.217 195.197C81.272 195.221 81.3287 195.241 81.3871 195.258L81.8408 195.392C82.0711 195.458 82.2481 195.561 82.3718 195.702C82.4955 195.839 82.5574 196.004 82.5574 196.197C82.5574 196.362 82.5127 196.508 82.4233 196.635C82.3374 196.759 82.2171 196.857 82.0625 196.929C81.9078 196.997 81.7274 197.032 81.5212 197.032ZM85.2253 197.032C84.9847 197.032 84.7614 196.987 84.5551 196.898C84.3489 196.805 84.1737 196.68 84.0293 196.521C83.885 196.363 83.7784 196.181 83.7097 195.975L84.2252 195.758C84.318 195.996 84.4538 196.178 84.6325 196.305C84.8112 196.432 85.0174 196.496 85.2511 196.496C85.3886 196.496 85.5089 196.475 85.612 196.434C85.7151 196.389 85.7941 196.327 85.8491 196.248C85.9075 196.169 85.9367 196.078 85.9367 195.975C85.9367 195.834 85.8972 195.722 85.8182 195.64C85.7391 195.557 85.6223 195.492 85.4676 195.444L84.7459 195.217C84.4572 195.128 84.2372 194.992 84.086 194.81C83.9348 194.624 83.8592 194.408 83.8592 194.16C83.8592 193.944 83.9125 193.755 84.019 193.593C84.1255 193.428 84.2716 193.299 84.4572 193.207C84.6462 193.114 84.861 193.067 85.1016 193.067C85.3319 193.067 85.5415 193.109 85.7305 193.191C85.9196 193.27 86.0811 193.38 86.2151 193.521C86.3526 193.662 86.4523 193.825 86.5141 194.011L86.0089 194.233C85.9333 194.03 85.8147 193.873 85.6532 193.763C85.4951 193.653 85.3112 193.598 85.1016 193.598C84.9744 193.598 84.8627 193.621 84.7665 193.665C84.6703 193.707 84.5947 193.769 84.5397 193.851C84.4881 193.93 84.4624 194.023 84.4624 194.129C84.4624 194.253 84.5019 194.363 84.5809 194.459C84.66 194.556 84.7803 194.628 84.9418 194.676L85.612 194.887C85.9178 194.98 86.1481 195.114 86.3028 195.289C86.4574 195.461 86.5347 195.676 86.5347 195.934C86.5347 196.147 86.478 196.336 86.3646 196.501C86.2546 196.666 86.1017 196.796 85.9058 196.893C85.7099 196.985 85.4831 197.032 85.2253 197.032ZM87.8426 197.032C87.6536 197.032 87.4869 196.999 87.3425 196.934C87.2016 196.865 87.0917 196.772 87.0126 196.656C86.9336 196.535 86.894 196.394 86.894 196.233C86.894 196.082 86.9267 195.946 86.992 195.826C87.0607 195.705 87.1656 195.604 87.3065 195.521C87.4474 195.439 87.6244 195.38 87.8374 195.346L88.8066 195.186V195.645L87.9509 195.795C87.7962 195.822 87.6828 195.872 87.6106 195.944C87.5384 196.013 87.5024 196.102 87.5024 196.212C87.5024 196.319 87.5419 196.406 87.6209 196.475C87.7034 196.54 87.8082 196.573 87.9354 196.573C88.0935 196.573 88.231 196.539 88.3478 196.47C88.4681 196.401 88.5609 196.31 88.6262 196.197C88.6915 196.08 88.7241 195.951 88.7241 195.81V195.093C88.7241 194.956 88.6726 194.844 88.5695 194.758C88.4698 194.669 88.3358 194.624 88.1674 194.624C88.0127 194.624 87.877 194.666 87.7601 194.748C87.6467 194.827 87.5625 194.93 87.5075 195.057L87.0229 194.815C87.0745 194.678 87.1587 194.557 87.2755 194.454C87.3924 194.348 87.5281 194.265 87.6828 194.207C87.8409 194.148 88.0076 194.119 88.1828 194.119C88.4028 194.119 88.597 194.16 88.7654 194.243C88.9372 194.325 89.0695 194.44 89.1623 194.588C89.2586 194.733 89.3067 194.901 89.3067 195.093V196.97H88.7499V196.465L88.8685 196.48C88.8032 196.594 88.719 196.692 88.6159 196.774C88.5162 196.857 88.4011 196.92 88.2705 196.965C88.1433 197.009 88.0007 197.032 87.8426 197.032ZM89.8847 196.97V193.067H90.4673V196.97H89.8847ZM91.8804 197.032C91.6914 197.032 91.5247 196.999 91.3803 196.934C91.2394 196.865 91.1294 196.772 91.0504 196.656C90.9713 196.535 90.9318 196.394 90.9318 196.233C90.9318 196.082 90.9645 195.946 91.0298 195.826C91.0985 195.705 91.2033 195.604 91.3442 195.521C91.4851 195.439 91.6621 195.38 91.8752 195.346L92.8444 195.186V195.645L91.9886 195.795C91.834 195.822 91.7206 195.872 91.6484 195.944C91.5762 196.013 91.5401 196.102 91.5401 196.212C91.5401 196.319 91.5797 196.406 91.6587 196.475C91.7412 196.54 91.846 196.573 91.9732 196.573C92.1313 196.573 92.2687 196.539 92.3856 196.47C92.5059 196.401 92.5987 196.31 92.664 196.197C92.7293 196.08 92.7619 195.951 92.7619 195.81V195.093C92.7619 194.956 92.7104 194.844 92.6073 194.758C92.5076 194.669 92.3736 194.624 92.2052 194.624C92.0505 194.624 91.9148 194.666 91.7979 194.748C91.6845 194.827 91.6003 194.93 91.5453 195.057L91.0607 194.815C91.1123 194.678 91.1965 194.557 91.3133 194.454C91.4302 194.348 91.5659 194.265 91.7206 194.207C91.8787 194.148 92.0453 194.119 92.2206 194.119C92.4406 194.119 92.6348 194.16 92.8032 194.243C92.975 194.325 93.1073 194.44 93.2001 194.588C93.2963 194.733 93.3445 194.901 93.3445 195.093V196.97H92.7877V196.465L92.9063 196.48C92.841 196.594 92.7568 196.692 92.6537 196.774C92.554 196.857 92.4389 196.92 92.3083 196.965C92.1811 197.009 92.0385 197.032 91.8804 197.032ZM93.9225 196.97V194.181H94.4793V194.743L94.4277 194.66C94.4896 194.478 94.5892 194.348 94.7267 194.269C94.8642 194.186 95.0291 194.145 95.2216 194.145H95.3917V194.676H95.1494C94.957 194.676 94.8006 194.736 94.6803 194.856C94.5635 194.973 94.505 195.142 94.505 195.362V196.97H93.9225ZM95.9346 198.104C95.8659 198.104 95.7971 198.097 95.7284 198.083C95.6631 198.073 95.6029 198.056 95.548 198.032V197.532C95.5892 197.542 95.639 197.551 95.6975 197.558C95.7559 197.568 95.8126 197.573 95.8676 197.573C96.0291 197.573 96.1477 197.537 96.2233 197.465C96.3023 197.396 96.3728 197.29 96.4347 197.145L96.6202 196.723L96.6099 197.212L95.4036 194.181H96.0274L96.9192 196.506H96.7079L97.5946 194.181H98.2235L96.9914 197.274C96.9261 197.439 96.8436 197.583 96.744 197.707C96.6477 197.834 96.5326 197.932 96.3986 198.001C96.268 198.07 96.1133 198.104 95.9346 198.104Z" fill="#596780"/>
<path d="M137.834 197.754C137.553 197.754 137.292 197.702 137.052 197.598C136.811 197.489 136.607 197.343 136.438 197.159C136.27 196.974 136.146 196.762 136.065 196.521L136.667 196.268C136.775 196.545 136.933 196.758 137.142 196.906C137.35 197.054 137.591 197.129 137.864 197.129C138.024 197.129 138.164 197.105 138.285 197.056C138.405 197.004 138.497 196.932 138.561 196.84C138.63 196.748 138.664 196.641 138.664 196.521C138.664 196.357 138.618 196.226 138.525 196.13C138.433 196.034 138.297 195.958 138.116 195.902L137.274 195.637C136.938 195.533 136.681 195.374 136.504 195.162C136.328 194.945 136.24 194.693 136.24 194.404C136.24 194.151 136.302 193.931 136.426 193.742C136.551 193.55 136.721 193.4 136.938 193.291C137.158 193.183 137.409 193.129 137.689 193.129C137.958 193.129 138.203 193.177 138.423 193.273C138.644 193.366 138.832 193.494 138.988 193.658C139.149 193.823 139.265 194.013 139.337 194.23L138.748 194.488C138.66 194.252 138.521 194.069 138.333 193.941C138.148 193.813 137.934 193.748 137.689 193.748C137.541 193.748 137.411 193.775 137.298 193.827C137.186 193.875 137.098 193.947 137.034 194.043C136.974 194.135 136.944 194.244 136.944 194.368C136.944 194.512 136.99 194.641 137.082 194.753C137.174 194.865 137.314 194.949 137.503 195.005L138.285 195.252C138.642 195.36 138.91 195.517 139.091 195.721C139.271 195.922 139.361 196.172 139.361 196.473C139.361 196.722 139.295 196.942 139.163 197.135C139.035 197.327 138.856 197.479 138.628 197.592C138.399 197.7 138.134 197.754 137.834 197.754ZM137.557 198.283V192.6H138.038V198.283H137.557ZM141.469 197.754C141.156 197.754 140.882 197.694 140.645 197.574C140.413 197.449 140.232 197.285 140.104 197.08C139.976 196.872 139.911 196.641 139.911 196.389C139.911 196.1 139.99 195.851 140.146 195.643C140.306 195.43 140.531 195.276 140.82 195.18L140.79 195.36C140.577 195.28 140.409 195.146 140.284 194.957C140.164 194.765 140.104 194.554 140.104 194.326C140.104 194.097 140.162 193.893 140.278 193.712C140.399 193.532 140.561 193.39 140.765 193.285C140.974 193.181 141.209 193.129 141.469 193.129C141.734 193.129 141.968 193.181 142.173 193.285C142.377 193.386 142.538 193.526 142.654 193.706C142.774 193.887 142.834 194.093 142.834 194.326C142.834 194.562 142.772 194.775 142.648 194.963C142.528 195.148 142.363 195.28 142.155 195.36L142.125 195.18C142.413 195.28 142.638 195.434 142.798 195.643C142.959 195.851 143.039 196.1 143.039 196.389C143.039 196.641 142.973 196.872 142.84 197.08C142.712 197.285 142.53 197.449 142.293 197.574C142.057 197.694 141.782 197.754 141.469 197.754ZM141.469 197.153C141.642 197.153 141.792 197.121 141.92 197.056C142.049 196.988 142.149 196.896 142.221 196.78C142.293 196.663 142.329 196.527 142.329 196.371C142.329 196.214 142.293 196.078 142.221 195.962C142.149 195.845 142.049 195.755 141.92 195.691C141.792 195.627 141.642 195.595 141.469 195.595C141.301 195.595 141.152 195.627 141.024 195.691C140.896 195.755 140.796 195.845 140.723 195.962C140.651 196.078 140.615 196.214 140.615 196.371C140.615 196.527 140.651 196.663 140.723 196.78C140.796 196.896 140.896 196.988 141.024 197.056C141.152 197.121 141.301 197.153 141.469 197.153ZM141.469 194.993C141.597 194.993 141.71 194.967 141.806 194.915C141.906 194.859 141.984 194.783 142.041 194.687C142.097 194.59 142.125 194.482 142.125 194.362C142.125 194.238 142.097 194.129 142.041 194.037C141.984 193.941 141.906 193.867 141.806 193.815C141.71 193.758 141.597 193.73 141.469 193.73C141.345 193.73 141.233 193.758 141.132 193.815C141.032 193.867 140.954 193.941 140.898 194.037C140.842 194.129 140.814 194.238 140.814 194.362C140.814 194.482 140.842 194.59 140.898 194.687C140.954 194.783 141.032 194.859 141.132 194.915C141.233 194.967 141.345 194.993 141.469 194.993ZM143.946 197.682V196.9H144.638V197.682H143.946ZM147.373 197.754C147.016 197.754 146.703 197.658 146.434 197.465C146.166 197.269 145.955 196.998 145.803 196.653C145.654 196.305 145.58 195.9 145.58 195.439C145.58 194.973 145.654 194.568 145.803 194.224C145.955 193.879 146.164 193.61 146.428 193.418C146.697 193.225 147.01 193.129 147.367 193.129C147.723 193.129 148.034 193.225 148.299 193.418C148.567 193.61 148.776 193.881 148.924 194.23C149.077 194.574 149.153 194.977 149.153 195.439C149.153 195.9 149.079 196.305 148.93 196.653C148.782 196.998 148.573 197.269 148.305 197.465C148.04 197.658 147.729 197.754 147.373 197.754ZM147.373 197.105C147.593 197.105 147.784 197.036 147.944 196.9C148.104 196.764 148.229 196.571 148.317 196.323C148.405 196.074 148.449 195.779 148.449 195.439C148.449 195.098 148.405 194.803 148.317 194.554C148.229 194.306 148.104 194.113 147.944 193.977C147.784 193.841 147.591 193.773 147.367 193.773C147.146 193.773 146.956 193.841 146.795 193.977C146.635 194.113 146.51 194.306 146.422 194.554C146.334 194.803 146.29 195.098 146.29 195.439C146.29 195.775 146.334 196.07 146.422 196.323C146.51 196.571 146.635 196.764 146.795 196.9C146.96 197.036 147.152 197.105 147.373 197.105ZM151.557 197.754C151.201 197.754 150.888 197.658 150.619 197.465C150.351 197.269 150.14 196.998 149.988 196.653C149.839 196.305 149.765 195.9 149.765 195.439C149.765 194.973 149.839 194.568 149.988 194.224C150.14 193.879 150.349 193.61 150.613 193.418C150.882 193.225 151.195 193.129 151.551 193.129C151.908 193.129 152.219 193.225 152.484 193.418C152.752 193.61 152.961 193.881 153.109 194.23C153.262 194.574 153.338 194.977 153.338 195.439C153.338 195.9 153.264 196.305 153.115 196.653C152.967 196.998 152.758 197.269 152.49 197.465C152.225 197.658 151.914 197.754 151.557 197.754ZM151.557 197.105C151.778 197.105 151.968 197.036 152.129 196.9C152.289 196.764 152.414 196.571 152.502 196.323C152.59 196.074 152.634 195.779 152.634 195.439C152.634 195.098 152.59 194.803 152.502 194.554C152.414 194.306 152.289 194.113 152.129 193.977C151.968 193.841 151.776 193.773 151.551 193.773C151.331 193.773 151.14 193.841 150.98 193.977C150.82 194.113 150.695 194.306 150.607 194.554C150.519 194.803 150.475 195.098 150.475 195.439C150.475 195.775 150.519 196.07 150.607 196.323C150.695 196.571 150.82 196.764 150.98 196.9C151.144 197.036 151.337 197.105 151.557 197.105ZM155.742 197.754C155.386 197.754 155.073 197.658 154.804 197.465C154.536 197.269 154.325 196.998 154.173 196.653C154.024 196.305 153.95 195.9 153.95 195.439C153.95 194.973 154.024 194.568 154.173 194.224C154.325 193.879 154.534 193.61 154.798 193.418C155.067 193.225 155.38 193.129 155.736 193.129C156.093 193.129 156.404 193.225 156.669 193.418C156.937 193.61 157.146 193.881 157.294 194.23C157.447 194.574 157.523 194.977 157.523 195.439C157.523 195.9 157.449 196.305 157.3 196.653C157.152 196.998 156.943 197.269 156.675 197.465C156.41 197.658 156.099 197.754 155.742 197.754ZM155.742 197.105C155.963 197.105 156.153 197.036 156.314 196.9C156.474 196.764 156.598 196.571 156.687 196.323C156.775 196.074 156.819 195.779 156.819 195.439C156.819 195.098 156.775 194.803 156.687 194.554C156.598 194.306 156.474 194.113 156.314 193.977C156.153 193.841 155.961 193.773 155.736 193.773C155.516 193.773 155.325 193.841 155.165 193.977C155.005 194.113 154.88 194.306 154.792 194.554C154.704 194.803 154.66 195.098 154.66 195.439C154.66 195.775 154.704 196.07 154.792 196.323C154.88 196.571 155.005 196.764 155.165 196.9C155.329 197.036 155.522 197.105 155.742 197.105ZM158.466 197.682V196.9H159.158V197.682H158.466ZM161.892 197.754C161.535 197.754 161.223 197.658 160.954 197.465C160.685 197.269 160.475 196.998 160.322 196.653C160.174 196.305 160.1 195.9 160.1 195.439C160.1 194.973 160.174 194.568 160.322 194.224C160.475 193.879 160.683 193.61 160.948 193.418C161.217 193.225 161.529 193.129 161.886 193.129C162.243 193.129 162.554 193.225 162.818 193.418C163.087 193.61 163.296 193.881 163.444 194.23C163.596 194.574 163.672 194.977 163.672 195.439C163.672 195.9 163.598 196.305 163.45 196.653C163.302 196.998 163.093 197.269 162.824 197.465C162.56 197.658 162.249 197.754 161.892 197.754ZM161.892 197.105C162.113 197.105 162.303 197.036 162.464 196.9C162.624 196.764 162.748 196.571 162.836 196.323C162.925 196.074 162.969 195.779 162.969 195.439C162.969 195.098 162.925 194.803 162.836 194.554C162.748 194.306 162.624 194.113 162.464 193.977C162.303 193.841 162.111 193.773 161.886 193.773C161.666 193.773 161.475 193.841 161.315 193.977C161.154 194.113 161.03 194.306 160.942 194.554C160.854 194.803 160.81 195.098 160.81 195.439C160.81 195.775 160.854 196.07 160.942 196.323C161.03 196.571 161.154 196.764 161.315 196.9C161.479 197.036 161.672 197.105 161.892 197.105ZM166.077 197.754C165.72 197.754 165.408 197.658 165.139 197.465C164.87 197.269 164.66 196.998 164.507 196.653C164.359 196.305 164.285 195.9 164.285 195.439C164.285 194.973 164.359 194.568 164.507 194.224C164.66 193.879 164.868 193.61 165.133 193.418C165.402 193.225 165.714 193.129 166.071 193.129C166.428 193.129 166.739 193.225 167.003 193.418C167.272 193.61 167.48 193.881 167.629 194.23C167.781 194.574 167.857 194.977 167.857 195.439C167.857 195.9 167.783 196.305 167.635 196.653C167.486 196.998 167.278 197.269 167.009 197.465C166.745 197.658 166.434 197.754 166.077 197.754ZM166.077 197.105C166.298 197.105 166.488 197.036 166.648 196.9C166.809 196.764 166.933 196.571 167.021 196.323C167.11 196.074 167.154 195.779 167.154 195.439C167.154 195.098 167.11 194.803 167.021 194.554C166.933 194.306 166.809 194.113 166.648 193.977C166.488 193.841 166.296 193.773 166.071 193.773C165.851 193.773 165.66 193.841 165.5 193.977C165.339 194.113 165.215 194.306 165.127 194.554C165.039 194.803 164.995 195.098 164.995 195.439C164.995 195.775 165.039 196.07 165.127 196.323C165.215 196.571 165.339 196.764 165.5 196.9C165.664 197.036 165.857 197.105 166.077 197.105Z" fill="#1A202C"/>
<path d="M84.2994 135.789C83.8114 135.789 83.3577 135.699 82.9384 135.52C82.526 135.342 82.1686 135.094 81.8661 134.778C81.5706 134.455 81.354 134.08 81.2166 133.654L82.3816 133.149C82.5672 133.589 82.8353 133.936 83.1859 134.19C83.5364 134.438 83.9316 134.562 84.3716 134.562C84.619 134.562 84.8321 134.524 85.0108 134.448C85.1964 134.366 85.3373 134.256 85.4335 134.118C85.5366 133.981 85.5882 133.816 85.5882 133.623C85.5882 133.397 85.5194 133.211 85.382 133.067C85.2514 132.915 85.052 132.798 84.784 132.716L83.3096 132.242C82.7116 132.056 82.2613 131.778 81.9589 131.407C81.6565 131.035 81.5053 130.599 81.5053 130.097C81.5053 129.657 81.6118 129.269 81.8249 128.932C82.0448 128.595 82.3473 128.334 82.7322 128.148C83.124 127.956 83.5708 127.86 84.0725 127.86C84.5331 127.86 84.9558 127.942 85.3407 128.107C85.7257 128.265 86.0556 128.489 86.3305 128.777C86.6124 129.059 86.822 129.393 86.9595 129.778L85.8047 130.293C85.6535 129.908 85.4267 129.613 85.1242 129.406C84.8218 129.193 84.4712 129.087 84.0725 129.087C83.8388 129.087 83.6326 129.128 83.4539 129.21C83.2752 129.286 83.1343 129.396 83.0312 129.54C82.935 129.678 82.8868 129.843 82.8868 130.035C82.8868 130.248 82.9556 130.437 83.0931 130.602C83.2305 130.76 83.4402 130.884 83.722 130.974L85.1345 131.417C85.7463 131.616 86.2034 131.891 86.5058 132.242C86.8151 132.592 86.9698 133.025 86.9698 133.541C86.9698 133.981 86.8564 134.369 86.6295 134.706C86.4027 135.043 86.09 135.307 85.6913 135.5C85.2926 135.692 84.8286 135.789 84.2994 135.789ZM83.8045 136.696V126.952H84.6809V136.696H83.8045ZM88.9644 135.665V129.18H87.4797V127.984H90.3667V135.665H88.9644ZM91.999 135.665L94.6076 132.304L94.8447 132.551C94.7416 132.627 94.6419 132.689 94.5457 132.737C94.4495 132.785 94.3464 132.819 94.2364 132.84C94.1264 132.86 94.0095 132.871 93.8858 132.871C93.4184 132.871 93.0026 132.764 92.6383 132.551C92.274 132.338 91.9853 132.049 91.7722 131.685C91.566 131.314 91.4629 130.895 91.4629 130.427C91.4629 129.932 91.5763 129.492 91.8031 129.107C92.0368 128.722 92.353 128.42 92.7517 128.2C93.1572 127.973 93.6177 127.86 94.1333 127.86C94.6557 127.86 95.1162 127.97 95.5149 128.19C95.9135 128.41 96.2263 128.712 96.4531 129.097C96.6868 129.475 96.8037 129.912 96.8037 130.406C96.8037 130.654 96.7762 130.901 96.7212 131.149C96.6662 131.396 96.5665 131.661 96.4222 131.943C96.2847 132.218 96.0854 132.53 95.8242 132.881L93.6796 135.665H91.999ZM94.1333 131.695C94.3738 131.695 94.5869 131.644 94.7725 131.541C94.965 131.431 95.1162 131.279 95.2262 131.087C95.3362 130.888 95.3911 130.664 95.3911 130.417C95.3911 130.156 95.3327 129.929 95.2159 129.736C95.1059 129.544 94.9581 129.393 94.7725 129.283C94.5869 129.173 94.3738 129.118 94.1333 129.118C93.8996 129.118 93.6865 129.173 93.494 129.283C93.3016 129.393 93.1469 129.544 93.0301 129.736C92.9201 129.929 92.8651 130.156 92.8651 130.417C92.8651 130.664 92.9201 130.888 93.0301 131.087C93.1469 131.279 93.3016 131.431 93.494 131.541C93.6865 131.644 93.8996 131.695 94.1333 131.695ZM97.6325 137.273V136.603C97.8593 136.548 98.0414 136.442 98.1789 136.283C98.3233 136.132 98.4126 135.926 98.447 135.665H97.8387V134.221H99.1996V135.108C99.1996 135.713 99.0656 136.198 98.7975 136.562C98.5363 136.926 98.148 137.163 97.6325 137.273ZM100.689 135.665L103.885 129.169H100.266V127.984H105.359V129.169L102.235 135.665H100.689ZM107.997 135.789C107.474 135.789 107.01 135.679 106.605 135.459C106.206 135.232 105.893 134.929 105.666 134.551C105.44 134.166 105.326 133.73 105.326 133.242C105.326 132.994 105.35 132.747 105.398 132.499C105.453 132.252 105.55 131.987 105.687 131.706C105.831 131.424 106.038 131.111 106.306 130.767L108.45 127.984H110.121L107.512 131.334L107.285 131.087C107.381 131.011 107.481 130.953 107.584 130.912C107.687 130.864 107.79 130.829 107.894 130.809C108.003 130.788 108.117 130.778 108.234 130.778C108.701 130.778 109.117 130.884 109.481 131.097C109.846 131.31 110.131 131.602 110.337 131.974C110.55 132.338 110.657 132.75 110.657 133.211C110.657 133.706 110.543 134.149 110.316 134.541C110.09 134.926 109.773 135.232 109.368 135.459C108.969 135.679 108.512 135.789 107.997 135.789ZM107.997 134.52C108.23 134.52 108.44 134.469 108.626 134.366C108.818 134.256 108.969 134.101 109.079 133.902C109.196 133.702 109.254 133.479 109.254 133.232C109.254 132.97 109.196 132.747 109.079 132.561C108.969 132.369 108.821 132.218 108.636 132.108C108.45 131.998 108.237 131.943 107.997 131.943C107.763 131.943 107.55 131.998 107.357 132.108C107.165 132.218 107.01 132.369 106.893 132.561C106.783 132.747 106.728 132.97 106.728 133.232C106.728 133.479 106.783 133.702 106.893 133.902C107.01 134.101 107.165 134.256 107.357 134.366C107.55 134.469 107.763 134.52 107.997 134.52ZM114.426 135.789C113.814 135.789 113.278 135.624 112.817 135.294C112.357 134.964 111.996 134.5 111.735 133.902C111.48 133.304 111.353 132.609 111.353 131.819C111.353 131.022 111.48 130.327 111.735 129.736C111.989 129.145 112.347 128.685 112.807 128.355C113.268 128.025 113.804 127.86 114.415 127.86C115.041 127.86 115.581 128.025 116.034 128.355C116.495 128.685 116.856 129.149 117.117 129.747C117.378 130.338 117.509 131.029 117.509 131.819C117.509 132.609 117.378 133.304 117.117 133.902C116.863 134.493 116.505 134.957 116.045 135.294C115.584 135.624 115.044 135.789 114.426 135.789ZM114.436 134.51C114.787 134.51 115.086 134.403 115.333 134.19C115.581 133.97 115.77 133.661 115.9 133.262C116.038 132.857 116.106 132.376 116.106 131.819C116.106 131.262 116.038 130.785 115.9 130.386C115.77 129.98 115.577 129.671 115.323 129.458C115.075 129.245 114.773 129.138 114.415 129.138C114.072 129.138 113.776 129.245 113.529 129.458C113.281 129.671 113.089 129.98 112.951 130.386C112.821 130.785 112.756 131.262 112.756 131.819C112.756 132.369 112.821 132.847 112.951 133.252C113.089 133.651 113.281 133.96 113.529 134.18C113.783 134.4 114.086 134.51 114.436 134.51ZM118.828 137.273V136.603C119.055 136.548 119.237 136.442 119.375 136.283C119.519 136.132 119.609 135.926 119.643 135.665H119.035V134.221H120.396V135.108C120.396 135.713 120.262 136.198 119.994 136.562C119.732 136.926 119.344 137.163 118.828 137.273ZM124.792 135.789C124.18 135.789 123.644 135.624 123.184 135.294C122.723 134.964 122.362 134.5 122.101 133.902C121.847 133.304 121.72 132.609 121.72 131.819C121.72 131.022 121.847 130.327 122.101 129.736C122.356 129.145 122.713 128.685 123.173 128.355C123.634 128.025 124.17 127.86 124.782 127.86C125.407 127.86 125.947 128.025 126.401 128.355C126.861 128.685 127.222 129.149 127.483 129.747C127.744 130.338 127.875 131.029 127.875 131.819C127.875 132.609 127.744 133.304 127.483 133.902C127.229 134.493 126.871 134.957 126.411 135.294C125.95 135.624 125.411 135.789 124.792 135.789ZM124.803 134.51C125.153 134.51 125.452 134.403 125.7 134.19C125.947 133.97 126.136 133.661 126.267 133.262C126.404 132.857 126.473 132.376 126.473 131.819C126.473 131.262 126.404 130.785 126.267 130.386C126.136 129.98 125.944 129.671 125.689 129.458C125.442 129.245 125.139 129.138 124.782 129.138C124.438 129.138 124.143 129.245 123.895 129.458C123.648 129.671 123.455 129.98 123.318 130.386C123.187 130.785 123.122 131.262 123.122 131.819C123.122 132.369 123.187 132.847 123.318 133.252C123.455 133.651 123.648 133.96 123.895 134.18C124.15 134.4 124.452 134.51 124.803 134.51ZM131.783 135.789C131.171 135.789 130.635 135.624 130.174 135.294C129.714 134.964 129.353 134.5 129.092 133.902C128.837 133.304 128.71 132.609 128.71 131.819C128.71 131.022 128.837 130.327 129.092 129.736C129.346 129.145 129.703 128.685 130.164 128.355C130.625 128.025 131.161 127.86 131.772 127.86C132.398 127.86 132.938 128.025 133.391 128.355C133.852 128.685 134.213 129.149 134.474 129.747C134.735 130.338 134.866 131.029 134.866 131.819C134.866 132.609 134.735 133.304 134.474 133.902C134.219 134.493 133.862 134.957 133.402 135.294C132.941 135.624 132.401 135.789 131.783 135.789ZM131.793 134.51C132.144 134.51 132.443 134.403 132.69 134.19C132.938 133.97 133.127 133.661 133.257 133.262C133.395 132.857 133.463 132.376 133.463 131.819C133.463 131.262 133.395 130.785 133.257 130.386C133.127 129.98 132.934 129.671 132.68 129.458C132.432 129.245 132.13 129.138 131.772 129.138C131.429 129.138 131.133 129.245 130.886 129.458C130.638 129.671 130.446 129.98 130.308 130.386C130.178 130.785 130.112 131.262 130.112 131.819C130.112 132.369 130.178 132.847 130.308 133.252C130.446 133.651 130.638 133.96 130.886 134.18C131.14 134.4 131.443 134.51 131.793 134.51Z" fill="#1A202C"/>
<path d="M86.8894 119.996C86.5726 119.996 86.2759 119.94 85.9992 119.828C85.7226 119.712 85.48 119.549 85.2715 119.341C85.067 119.132 84.9066 118.888 84.7903 118.607C84.674 118.322 84.6159 118.013 84.6159 117.681C84.6159 117.344 84.674 117.035 84.7903 116.754C84.9066 116.474 85.067 116.229 85.2715 116.021C85.48 115.812 85.7206 115.652 85.9932 115.54C86.2699 115.427 86.5686 115.371 86.8894 115.371C87.2101 115.371 87.5068 115.429 87.7795 115.546C88.0561 115.658 88.2967 115.818 88.5012 116.027C88.7097 116.231 88.8721 116.474 88.9884 116.754C89.1087 117.035 89.1688 117.344 89.1688 117.681C89.1688 118.013 89.1087 118.322 88.9884 118.607C88.8721 118.888 88.7097 119.132 88.5012 119.341C88.2967 119.549 88.0561 119.712 87.7795 119.828C87.5068 119.94 87.2101 119.996 86.8894 119.996ZM86.8894 119.449C87.1379 119.449 87.3645 119.405 87.569 119.317C87.7735 119.224 87.9499 119.098 88.0983 118.938C88.2506 118.773 88.3669 118.585 88.4471 118.372C88.5313 118.156 88.5734 117.925 88.5734 117.681C88.5734 117.436 88.5313 117.208 88.4471 116.995C88.3669 116.783 88.2506 116.596 88.0983 116.436C87.9499 116.271 87.7735 116.145 87.569 116.057C87.3645 115.965 87.1379 115.918 86.8894 115.918C86.6448 115.918 86.4202 115.965 86.2157 116.057C86.0112 116.145 85.8328 116.271 85.6805 116.436C85.5321 116.596 85.4158 116.783 85.3316 116.995C85.2474 117.208 85.2053 117.436 85.2053 117.681C85.2053 117.925 85.2474 118.156 85.3316 118.372C85.4158 118.585 85.5321 118.773 85.6805 118.938C85.8328 119.098 86.0112 119.224 86.2157 119.317C86.4202 119.405 86.6448 119.449 86.8894 119.449ZM90.7442 119.924L89.4751 116.682H90.1006L91.1171 119.425H90.9005L91.923 116.682H92.5485L91.2734 119.924H90.7442ZM94.3615 119.996C94.0487 119.996 93.77 119.922 93.5255 119.774C93.2809 119.625 93.0884 119.423 92.9481 119.166C92.8077 118.906 92.7376 118.615 92.7376 118.294C92.7376 117.969 92.8057 117.681 92.9421 117.428C93.0824 117.175 93.2709 116.977 93.5074 116.833C93.748 116.684 94.0166 116.61 94.3134 116.61C94.5539 116.61 94.7664 116.654 94.9509 116.742C95.1393 116.827 95.2977 116.943 95.426 117.091C95.5583 117.236 95.6586 117.402 95.7267 117.59C95.7989 117.775 95.835 117.967 95.835 118.168C95.835 118.212 95.831 118.262 95.823 118.318C95.819 118.37 95.8129 118.42 95.8049 118.469H93.1466V117.987H95.4801L95.2155 118.204C95.2516 117.995 95.2316 117.809 95.1554 117.645C95.0792 117.48 94.9669 117.35 94.8186 117.254C94.6702 117.157 94.5018 117.109 94.3134 117.109C94.1249 117.109 93.9525 117.157 93.7961 117.254C93.6397 117.35 93.5174 117.488 93.4292 117.669C93.345 117.845 93.3109 118.056 93.327 118.3C93.3109 118.537 93.347 118.745 93.4352 118.926C93.5275 119.102 93.6558 119.24 93.8202 119.341C93.9886 119.437 94.171 119.485 94.3675 119.485C94.584 119.485 94.7664 119.435 94.9148 119.335C95.0631 119.234 95.1834 119.106 95.2757 118.95L95.7448 119.19C95.6806 119.339 95.5804 119.475 95.4441 119.599C95.3117 119.72 95.1534 119.816 94.9689 119.888C94.7885 119.96 94.586 119.996 94.3615 119.996ZM96.444 119.924V116.682H96.9913V117.278L96.9312 117.194C97.0074 117.009 97.1236 116.873 97.28 116.785C97.4364 116.692 97.6268 116.646 97.8514 116.646H98.0499V117.175H97.7672C97.5386 117.175 97.3542 117.248 97.2139 117.392C97.0735 117.532 97.0033 117.733 97.0033 117.993V119.924H96.444ZM99.3767 119.996C99.1642 119.996 98.9757 119.958 98.8113 119.882C98.651 119.802 98.5246 119.694 98.4324 119.557C98.3402 119.417 98.2941 119.256 98.2941 119.076C98.2941 118.904 98.3302 118.749 98.4024 118.613C98.4785 118.473 98.5948 118.354 98.7512 118.258C98.9116 118.162 99.1121 118.094 99.3526 118.054L100.556 117.855V118.324L99.4789 118.505C99.2704 118.541 99.1181 118.607 99.0218 118.703C98.9296 118.799 98.8835 118.918 98.8835 119.058C98.8835 119.19 98.9356 119.301 99.0399 119.389C99.1481 119.477 99.2825 119.521 99.4428 119.521C99.6473 119.521 99.8238 119.479 99.9721 119.395C100.124 119.307 100.243 119.188 100.327 119.04C100.415 118.892 100.459 118.727 100.459 118.547V117.723C100.459 117.546 100.393 117.404 100.261 117.296C100.133 117.184 99.9621 117.127 99.7496 117.127C99.5651 117.127 99.4007 117.175 99.2564 117.272C99.1161 117.364 99.0118 117.488 98.9437 117.645L98.4565 117.392C98.5166 117.244 98.6129 117.111 98.7452 116.995C98.8775 116.875 99.0319 116.781 99.2083 116.712C99.3847 116.644 99.5692 116.61 99.7616 116.61C100.01 116.61 100.229 116.658 100.417 116.754C100.606 116.847 100.752 116.977 100.856 117.145C100.964 117.31 101.019 117.502 101.019 117.723V119.924H100.471V119.311L100.574 119.347C100.505 119.475 100.413 119.587 100.297 119.683C100.181 119.78 100.044 119.856 99.8879 119.912C99.7315 119.968 99.5611 119.996 99.3767 119.996ZM101.766 119.924V115.371H102.325V119.924H101.766ZM103.073 119.924V115.371H103.632V119.924H103.073ZM107.722 119.996C107.405 119.996 107.122 119.922 106.874 119.774C106.629 119.625 106.437 119.423 106.296 119.166C106.156 118.91 106.086 118.621 106.086 118.3C106.086 117.975 106.156 117.687 106.296 117.434C106.437 117.181 106.629 116.981 106.874 116.833C107.122 116.684 107.405 116.61 107.722 116.61C107.934 116.61 108.133 116.648 108.317 116.724C108.502 116.801 108.664 116.903 108.804 117.031C108.945 117.159 109.047 117.31 109.111 117.482L108.612 117.723C108.536 117.554 108.419 117.418 108.263 117.314C108.107 117.206 107.926 117.151 107.722 117.151C107.525 117.151 107.347 117.202 107.186 117.302C107.03 117.402 106.906 117.538 106.814 117.711C106.721 117.883 106.675 118.082 106.675 118.306C106.675 118.523 106.721 118.719 106.814 118.896C106.906 119.068 107.03 119.204 107.186 119.305C107.347 119.405 107.525 119.455 107.722 119.455C107.926 119.455 108.107 119.403 108.263 119.299C108.419 119.19 108.536 119.048 108.612 118.872L109.111 119.124C109.047 119.293 108.945 119.443 108.804 119.575C108.664 119.704 108.502 119.806 108.317 119.882C108.133 119.958 107.934 119.996 107.722 119.996ZM111.261 119.996C110.949 119.996 110.666 119.924 110.413 119.78C110.161 119.631 109.96 119.429 109.812 119.172C109.664 118.916 109.589 118.625 109.589 118.3C109.589 117.975 109.662 117.687 109.806 117.434C109.954 117.181 110.155 116.981 110.407 116.833C110.66 116.684 110.945 116.61 111.261 116.61C111.574 116.61 111.857 116.684 112.109 116.833C112.362 116.977 112.561 117.175 112.705 117.428C112.853 117.681 112.927 117.971 112.927 118.3C112.927 118.629 112.851 118.922 112.699 119.178C112.547 119.431 112.344 119.631 112.091 119.78C111.843 119.924 111.566 119.996 111.261 119.996ZM111.261 119.455C111.462 119.455 111.642 119.405 111.803 119.305C111.967 119.204 112.095 119.066 112.188 118.89C112.284 118.713 112.332 118.517 112.332 118.3C112.332 118.08 112.284 117.885 112.188 117.717C112.095 117.544 111.967 117.408 111.803 117.308C111.642 117.204 111.462 117.151 111.261 117.151C111.057 117.151 110.873 117.204 110.708 117.308C110.548 117.408 110.419 117.544 110.323 117.717C110.227 117.885 110.179 118.08 110.179 118.3C110.179 118.517 110.227 118.713 110.323 118.89C110.419 119.066 110.548 119.204 110.708 119.305C110.873 119.405 111.057 119.455 111.261 119.455ZM113.537 119.924V115.371H114.096V119.924H113.537ZM114.844 119.924V115.371H115.403V119.924H114.844ZM117.642 119.996C117.329 119.996 117.051 119.922 116.806 119.774C116.562 119.625 116.369 119.423 116.229 119.166C116.088 118.906 116.018 118.615 116.018 118.294C116.018 117.969 116.086 117.681 116.223 117.428C116.363 117.175 116.552 116.977 116.788 116.833C117.029 116.684 117.297 116.61 117.594 116.61C117.835 116.61 118.047 116.654 118.232 116.742C118.42 116.827 118.578 116.943 118.707 117.091C118.839 117.236 118.939 117.402 119.007 117.59C119.08 117.775 119.116 117.967 119.116 118.168C119.116 118.212 119.112 118.262 119.104 118.318C119.1 118.37 119.094 118.42 119.086 118.469H116.427V117.987H118.761L118.496 118.204C118.532 117.995 118.512 117.809 118.436 117.645C118.36 117.48 118.248 117.35 118.099 117.254C117.951 117.157 117.783 117.109 117.594 117.109C117.406 117.109 117.233 117.157 117.077 117.254C116.92 117.35 116.798 117.488 116.71 117.669C116.626 117.845 116.592 118.056 116.608 118.3C116.592 118.537 116.628 118.745 116.716 118.926C116.808 119.102 116.937 119.24 117.101 119.341C117.269 119.437 117.452 119.485 117.648 119.485C117.865 119.485 118.047 119.435 118.196 119.335C118.344 119.234 118.464 119.106 118.556 118.95L119.026 119.19C118.961 119.339 118.861 119.475 118.725 119.599C118.592 119.72 118.434 119.816 118.25 119.888C118.069 119.96 117.867 119.996 117.642 119.996ZM121.228 119.996C120.912 119.996 120.629 119.922 120.38 119.774C120.136 119.625 119.943 119.423 119.803 119.166C119.663 118.91 119.592 118.621 119.592 118.3C119.592 117.975 119.663 117.687 119.803 117.434C119.943 117.181 120.136 116.981 120.38 116.833C120.629 116.684 120.912 116.61 121.228 116.61C121.441 116.61 121.639 116.648 121.824 116.724C122.008 116.801 122.171 116.903 122.311 117.031C122.451 117.159 122.554 117.31 122.618 117.482L122.118 117.723C122.042 117.554 121.926 117.418 121.77 117.314C121.613 117.206 121.433 117.151 121.228 117.151C121.032 117.151 120.853 117.202 120.693 117.302C120.537 117.402 120.412 117.538 120.32 117.711C120.228 117.883 120.182 118.082 120.182 118.306C120.182 118.523 120.228 118.719 120.32 118.896C120.412 119.068 120.537 119.204 120.693 119.305C120.853 119.405 121.032 119.455 121.228 119.455C121.433 119.455 121.613 119.403 121.77 119.299C121.926 119.19 122.042 119.048 122.118 118.872L122.618 119.124C122.554 119.293 122.451 119.443 122.311 119.575C122.171 119.704 122.008 119.806 121.824 119.882C121.639 119.958 121.441 119.996 121.228 119.996ZM124.546 119.96C124.229 119.96 123.984 119.87 123.812 119.69C123.643 119.509 123.559 119.254 123.559 118.926V117.218H122.97V116.682H123.09C123.234 116.682 123.349 116.638 123.433 116.55C123.517 116.462 123.559 116.345 123.559 116.201V115.937H124.118V116.682H124.846V117.218H124.118V118.908C124.118 119.016 124.135 119.11 124.167 119.19C124.203 119.271 124.261 119.335 124.341 119.383C124.421 119.427 124.527 119.449 124.66 119.449C124.688 119.449 124.722 119.447 124.762 119.443C124.806 119.439 124.846 119.435 124.882 119.431V119.924C124.83 119.936 124.772 119.944 124.708 119.948C124.644 119.956 124.59 119.96 124.546 119.96ZM126.896 119.996C126.583 119.996 126.305 119.922 126.06 119.774C125.816 119.625 125.623 119.423 125.483 119.166C125.342 118.906 125.272 118.615 125.272 118.294C125.272 117.969 125.34 117.681 125.477 117.428C125.617 117.175 125.806 116.977 126.042 116.833C126.283 116.684 126.551 116.61 126.848 116.61C127.089 116.61 127.301 116.654 127.486 116.742C127.674 116.827 127.832 116.943 127.961 117.091C128.093 117.236 128.193 117.402 128.261 117.59C128.334 117.775 128.37 117.967 128.37 118.168C128.37 118.212 128.366 118.262 128.358 118.318C128.354 118.37 128.348 118.42 128.34 118.469H125.681V117.987H128.015L127.75 118.204C127.786 117.995 127.766 117.809 127.69 117.645C127.614 117.48 127.502 117.35 127.353 117.254C127.205 117.157 127.037 117.109 126.848 117.109C126.66 117.109 126.487 117.157 126.331 117.254C126.174 117.35 126.052 117.488 125.964 117.669C125.88 117.845 125.846 118.056 125.862 118.3C125.846 118.537 125.882 118.745 125.97 118.926C126.062 119.102 126.19 119.24 126.355 119.341C126.523 119.437 126.706 119.485 126.902 119.485C127.119 119.485 127.301 119.435 127.449 119.335C127.598 119.234 127.718 119.106 127.81 118.95L128.279 119.19C128.215 119.339 128.115 119.475 127.979 119.599C127.846 119.72 127.688 119.816 127.504 119.888C127.323 119.96 127.121 119.996 126.896 119.996ZM130.452 119.996C130.148 119.996 129.873 119.922 129.628 119.774C129.388 119.625 129.197 119.423 129.057 119.166C128.917 118.91 128.846 118.623 128.846 118.306C128.846 117.981 128.917 117.693 129.057 117.44C129.197 117.184 129.388 116.981 129.628 116.833C129.873 116.684 130.148 116.61 130.452 116.61C130.721 116.61 130.959 116.668 131.168 116.785C131.376 116.897 131.541 117.049 131.661 117.242L131.571 117.38V115.371H132.136V119.924H131.589V119.232L131.661 119.329C131.549 119.541 131.384 119.706 131.168 119.822C130.955 119.938 130.717 119.996 130.452 119.996ZM130.5 119.455C130.705 119.455 130.887 119.405 131.048 119.305C131.208 119.204 131.334 119.068 131.427 118.896C131.523 118.719 131.571 118.523 131.571 118.306C131.571 118.086 131.523 117.889 131.427 117.717C131.334 117.54 131.208 117.402 131.048 117.302C130.887 117.202 130.705 117.151 130.5 117.151C130.3 117.151 130.117 117.204 129.953 117.308C129.793 117.408 129.666 117.544 129.574 117.717C129.482 117.885 129.436 118.082 129.436 118.306C129.436 118.523 129.482 118.719 129.574 118.896C129.666 119.068 129.793 119.204 129.953 119.305C130.113 119.405 130.296 119.455 130.5 119.455Z" fill="#596780"/>
</g>
</g>
<defs>
<filter id="filter0_d_1_1789" x="231.995" y="55.113" width="111.531" height="70.4474" filterUnits="userSpaceOnUse" color-interpolation-filters="sRGB">
<feFlood flood-opacity="0" result="BackgroundImageFix"/>
<feColorMatrix in="SourceAlpha" type="matrix" values="0 0 0 0 0 0 0 0 0 0 0 0 0 0 0 0 0 0 127 0" result="hardAlpha"/>
<feOffset dy="16.1442"/>
<feGaussianBlur stdDeviation="8.80594"/>
<feComposite in2="hardAlpha" operator="out"/>
<feColorMatrix type="matrix" values="0 0 0 0 0 0 0 0 0 0 0 0 0 0 0 0 0 0 0.25 0"/>
<feBlend mode="normal" in2="BackgroundImageFix" result="effect1_dropShadow_1_1789"/>
<feBlend mode="normal" in="SourceGraphic" in2="effect1_dropShadow_1_1789" result="shape"/>
</filter>
<filter id="filter1_d_1_1789" x="2.20518" y="11.1158" width="234.254" height="339.506" filterUnits="userSpaceOnUse" color-interpolation-filters="sRGB">
<feFlood flood-opacity="0" result="BackgroundImageFix"/>
<feColorMatrix in="SourceAlpha" type="matrix" values="0 0 0 0 0 0 0 0 0 0 0 0 0 0 0 0 0 0 127 0" result="hardAlpha"/>
<feOffset dx="11.0237" dy="11.0237"/>
<feGaussianBlur stdDeviation="22.0475"/>
<feComposite in2="hardAlpha" operator="out"/>
<feColorMatrix type="matrix" values="0 0 0 0 0 0 0 0 0 0 0 0 0 0 0 0 0 0 0.15 0"/>
<feBlend mode="normal" in2="BackgroundImageFix" result="effect1_dropShadow_1_1789"/>
<feBlend mode="normal" in="SourceGraphic" in2="effect1_dropShadow_1_1789" result="shape"/>
</filter>
<clipPath id="clip0_1_1789">
<path d="M0 -35.181C0 -40.0516 3.94839 -44 8.81898 -44H390.24V204.034H0V-35.181Z" fill="white"/>
</clipPath>
</defs>
</svg>
