<svg width="235" height="180" viewBox="0 0 235 180" fill="none" xmlns="http://www.w3.org/2000/svg">
<g clip-path="url(#clip0_1_2036)">
<g clip-path="url(#clip1_1_2036)">
<g clip-path="url(#clip2_1_2036)">
<g filter="url(#filter0_diii_1_2036)">
<path d="M172.192 19.5413H10.1267C5.65139 19.5413 2.02344 23.1692 2.02344 27.6445V431.795C2.02344 436.27 5.65139 439.898 10.1267 439.898H172.192C176.667 439.898 180.295 436.27 180.295 431.795V27.6445C180.295 23.1692 176.667 19.5413 172.192 19.5413Z" fill="url(#paint0_linear_1_2036)"/>
</g>
<path d="M51.658 145.142H25.322C23.6437 145.142 22.2832 146.502 22.2832 148.181C22.2832 149.859 23.6437 151.219 25.322 151.219H51.658C53.3363 151.219 54.6968 149.859 54.6968 148.181C54.6968 146.502 53.3363 145.142 51.658 145.142Z" fill="#0E9DA5"/>
<path d="M35.4545 171.983H25.3253C23.9267 171.983 22.793 173.117 22.793 174.516C22.793 175.914 23.9267 177.048 25.3253 177.048H35.4545C36.8531 177.048 37.9869 175.914 37.9869 174.516C37.9869 173.117 36.8531 171.983 35.4545 171.983Z" stroke="#0E9DA5" stroke-opacity="0.07" stroke-width="1.01291"/>
<path d="M35.4547 173.502H25.3254C24.766 173.502 24.3125 173.955 24.3125 174.515C24.3125 175.074 24.766 175.528 25.3254 175.528H35.4547C36.0141 175.528 36.4676 175.074 36.4676 174.515C36.4676 173.955 36.0141 173.502 35.4547 173.502Z" fill="#0E9DA5" fill-opacity="0.07"/>
<path d="M69.8907 158.307H23.2961C22.7367 158.307 22.2832 158.761 22.2832 159.32C22.2832 159.879 22.7367 160.333 23.2961 160.333H69.8907C70.4501 160.333 70.9036 159.879 70.9036 159.32C70.9036 158.761 70.4501 158.307 69.8907 158.307Z" fill="#0E9DA5" fill-opacity="0.08"/>
<path d="M77.9941 163.373H23.2961C22.7367 163.373 22.2832 163.826 22.2832 164.385C22.2832 164.945 22.7367 165.398 23.2961 165.398H77.9941C78.5535 165.398 79.007 164.945 79.007 164.385C79.007 163.826 78.5535 163.373 77.9941 163.373Z" fill="#0E9DA5" fill-opacity="0.08"/>
<path d="M160.04 141.089H101.291C99.0532 141.089 97.2393 142.903 97.2393 145.141V177.554C97.2393 179.791 99.0532 181.605 101.291 181.605H160.04C162.277 181.605 164.091 179.791 164.091 177.554V145.141C164.091 142.903 162.277 141.089 160.04 141.089Z" fill="#0E9DA5" fill-opacity="0.04"/>
<path d="M6.07617 39.7983L6.07617 106.65C6.07617 108.888 7.89015 110.702 10.1278 110.702L172.193 110.702C174.431 110.702 176.245 108.888 176.245 106.65V39.7983C176.245 37.5606 174.431 35.7467 172.193 35.7467L10.1278 35.7467C7.89015 35.7467 6.07617 37.5606 6.07617 39.7983Z" fill="#0E9DA5" fill-opacity="0.04"/>
<path d="M66.851 47.9014C65.7322 47.9014 64.8252 48.8084 64.8252 49.9273C64.8252 51.0461 65.7322 51.9531 66.851 51.9531H115.471C116.59 51.9531 117.497 51.0461 117.497 49.9273C117.497 48.8084 116.59 47.9014 115.471 47.9014H66.851Z" fill="#0E9DA5" fill-opacity="0.08"/>
<path d="M104.329 60.0566H77.9931C75.7554 60.0566 73.9414 61.8706 73.9414 64.1083C73.9414 66.346 75.7554 68.16 77.9931 68.16H104.329C106.567 68.16 108.381 66.346 108.381 64.1083C108.381 61.8706 106.567 60.0566 104.329 60.0566Z" fill="#0E9DA5"/>
<path d="M96.2296 86.3931H86.1003C84.422 86.3931 83.0615 87.7536 83.0615 89.4318C83.0615 91.1101 84.422 92.4706 86.1003 92.4706H96.2296C97.9078 92.4706 99.2683 91.1101 99.2683 89.4318C99.2683 87.7536 97.9078 86.3931 96.2296 86.3931Z" fill="#0E9DA5" fill-opacity="0.21"/>
<path d="M119.526 73.2258H62.802C62.2426 73.2258 61.7891 73.6793 61.7891 74.2388C61.7891 74.7982 62.2426 75.2517 62.802 75.2517H119.526C120.085 75.2517 120.539 74.7982 120.539 74.2388C120.539 73.6793 120.085 73.2258 119.526 73.2258Z" fill="#0E9DA5" fill-opacity="0.08"/>
<path d="M110.405 78.2893H71.9143C71.3549 78.2893 70.9014 78.7428 70.9014 79.3022C70.9014 79.8617 71.3549 80.3152 71.9143 80.3152H110.405C110.965 80.3152 111.418 79.8617 111.418 79.3022C111.418 78.7428 110.965 78.2893 110.405 78.2893Z" fill="#0E9DA5" fill-opacity="0.08"/>
<path d="M11.1438 29.6701C11.7032 29.6701 12.1567 29.2166 12.1567 28.6572C12.1567 28.0978 11.7032 27.6443 11.1438 27.6443C10.5844 27.6443 10.1309 28.0978 10.1309 28.6572C10.1309 29.2166 10.5844 29.6701 11.1438 29.6701Z" fill="#0E9DA5" fill-opacity="0.12"/>
<path d="M17.22 29.6699C17.7794 29.6699 18.2329 29.2164 18.2329 28.657C18.2329 28.0975 17.7794 27.644 17.22 27.644C16.6605 27.644 16.207 28.0975 16.207 28.657C16.207 29.2164 16.6605 29.6699 17.22 29.6699Z" fill="#0E9DA5" fill-opacity="0.12"/>
<path d="M23.2961 29.6699C23.8556 29.6699 24.3091 29.2164 24.3091 28.657C24.3091 28.0975 23.8556 27.644 23.2961 27.644C22.7367 27.644 22.2832 28.0975 22.2832 28.657C22.2832 29.2164 22.7367 29.6699 23.2961 29.6699Z" fill="#0E9DA5" fill-opacity="0.12"/>
<path d="M171.183 29.6699C171.742 29.6699 172.196 29.2164 172.196 28.657C172.196 28.0975 171.742 27.644 171.183 27.644C170.623 27.644 170.17 28.0975 170.17 28.657C170.17 29.2164 170.623 29.6699 171.183 29.6699Z" fill="#0E9DA5" fill-opacity="0.12"/>
<path d="M137.755 26.6296H44.5678C43.449 26.6296 42.542 27.5366 42.542 28.6555C42.542 29.7743 43.449 30.6813 44.5678 30.6813H137.755C138.874 30.6813 139.781 29.7743 139.781 28.6555C139.781 27.5366 138.874 26.6296 137.755 26.6296Z" fill="#0E9DA5" fill-opacity="0.08"/>
</g>
</g>
</g>
<g clip-path="url(#clip3_1_2036)">
<g clip-path="url(#clip4_1_2036)">
<g clip-path="url(#clip5_1_2036)">
<g filter="url(#filter1_diii_1_2036)">
<path d="M224.864 19.5413H62.7986C58.3233 19.5413 54.6953 23.1692 54.6953 27.6445V431.795C54.6953 436.27 58.3233 439.898 62.7986 439.898H224.864C229.339 439.898 232.967 436.27 232.967 431.795V27.6445C232.967 23.1692 229.339 19.5413 224.864 19.5413Z" fill="url(#paint1_linear_1_2036)"/>
</g>
<path d="M104.333 145.142H77.9968C76.3185 145.142 74.958 146.502 74.958 148.181C74.958 149.859 76.3185 151.219 77.9968 151.219H104.333C106.011 151.219 107.372 149.859 107.372 148.181C107.372 146.502 106.011 145.142 104.333 145.142Z" fill="#0E9DA5"/>
<path d="M88.1254 171.983H77.9962C76.5976 171.983 75.4639 173.117 75.4639 174.516C75.4639 175.914 76.5976 177.048 77.9962 177.048H88.1254C89.524 177.048 90.6578 175.914 90.6578 174.516C90.6578 173.117 89.524 171.983 88.1254 171.983Z" stroke="#0E9DA5" stroke-opacity="0.07" stroke-width="1.01291"/>
<path d="M88.1217 173.502H77.9924C77.433 173.502 76.9795 173.955 76.9795 174.515C76.9795 175.074 77.433 175.528 77.9924 175.528H88.1217C88.6811 175.528 89.1346 175.074 89.1346 174.515C89.1346 173.955 88.6811 173.502 88.1217 173.502Z" fill="#0E9DA5" fill-opacity="0.07"/>
<path d="M122.566 158.307H75.9709C75.4115 158.307 74.958 158.761 74.958 159.32C74.958 159.879 75.4115 160.333 75.9709 160.333H122.566C123.125 160.333 123.578 159.879 123.578 159.32C123.578 158.761 123.125 158.307 122.566 158.307Z" fill="#0E9DA5" fill-opacity="0.08"/>
<path d="M130.669 163.373H75.9709C75.4115 163.373 74.958 163.826 74.958 164.385C74.958 164.945 75.4115 165.398 75.9709 165.398H130.669C131.228 165.398 131.682 164.945 131.682 164.385C131.682 163.826 131.228 163.373 130.669 163.373Z" fill="#0E9DA5" fill-opacity="0.08"/>
<path d="M212.71 141.089H153.962C151.724 141.089 149.91 142.903 149.91 145.141V177.554C149.91 179.791 151.724 181.605 153.962 181.605H212.71C214.948 181.605 216.762 179.791 216.762 177.554V145.141C216.762 142.903 214.948 141.089 212.71 141.089Z" fill="#0E9DA5" fill-opacity="0.04"/>
<path d="M105.346 62.082H79.0097C76.772 62.082 74.958 63.896 74.958 66.1337C74.958 68.3714 76.772 70.1854 79.0097 70.1854H105.346C107.583 70.1854 109.397 68.3714 109.397 66.1337C109.397 63.896 107.583 62.082 105.346 62.082Z" fill="#0E9DA5"/>
<path d="M88.126 88.4165H77.9968C76.3185 88.4165 74.958 89.777 74.958 91.4553C74.958 93.1336 76.3185 94.4941 77.9968 94.4941H88.126C89.8043 94.4941 91.1648 93.1336 91.1648 91.4553C91.1648 89.777 89.8043 88.4165 88.126 88.4165Z" fill="#0E9DA5" fill-opacity="0.21"/>
<path d="M132.695 75.2493H75.9709C75.4115 75.2493 74.958 75.7028 74.958 76.2622C74.958 76.8216 75.4115 77.2751 75.9709 77.2751H132.695C133.254 77.2751 133.708 76.8216 133.708 76.2622C133.708 75.7028 133.254 75.2493 132.695 75.2493Z" fill="#0E9DA5" fill-opacity="0.08"/>
<path d="M114.462 80.3147H75.9709C75.4115 80.3147 74.958 80.7682 74.958 81.3276C74.958 81.887 75.4115 82.3405 75.9709 82.3405H114.462C115.022 82.3405 115.475 81.887 115.475 81.3276C115.475 80.7682 115.022 80.3147 114.462 80.3147Z" fill="#0E9DA5" fill-opacity="0.08"/>
<path d="M76.9839 47.9014C75.865 47.9014 74.958 48.8084 74.958 49.9273C74.958 51.0461 75.865 51.9531 76.9839 51.9531H125.604C126.723 51.9531 127.63 51.0461 127.63 49.9273C127.63 48.8084 126.723 47.9014 125.604 47.9014H76.9839Z" fill="#0E9DA5" fill-opacity="0.04"/>
<path d="M150.925 50.9387V95.5067C150.925 97.7444 152.739 99.5583 154.976 99.5583H211.699C213.937 99.5583 215.751 97.7444 215.751 95.5067V50.9387C215.751 48.7011 213.937 46.8871 211.699 46.8871L154.976 46.8871C152.739 46.8871 150.925 48.7011 150.925 50.9387Z" fill="#0E9DA5" fill-opacity="0.04"/>
<path d="M63.8147 29.6699C64.3741 29.6699 64.8276 29.2164 64.8276 28.657C64.8276 28.0975 64.3741 27.644 63.8147 27.644C63.2553 27.644 62.8018 28.0975 62.8018 28.657C62.8018 29.2164 63.2553 29.6699 63.8147 29.6699Z" fill="#0E9DA5" fill-opacity="0.12"/>
<path d="M69.8948 29.6699C70.4542 29.6699 70.9077 29.2164 70.9077 28.657C70.9077 28.0975 70.4542 27.644 69.8948 27.644C69.3353 27.644 68.8818 28.0975 68.8818 28.657C68.8818 29.2164 69.3353 29.6699 69.8948 29.6699Z" fill="#0E9DA5" fill-opacity="0.12"/>
<path d="M75.9709 29.6699C76.5304 29.6699 76.9839 29.2164 76.9839 28.657C76.9839 28.0975 76.5304 27.644 75.9709 27.644C75.4115 27.644 74.958 28.0975 74.958 28.657C74.958 29.2164 75.4115 29.6699 75.9709 29.6699Z" fill="#0E9DA5" fill-opacity="0.12"/>
<path d="M223.858 29.6699C224.417 29.6699 224.871 29.2164 224.871 28.657C224.871 28.0975 224.417 27.644 223.858 27.644C223.298 27.644 222.845 28.0975 222.845 28.657C222.845 29.2164 223.298 29.6699 223.858 29.6699Z" fill="#0E9DA5" fill-opacity="0.12"/>
<path d="M190.429 26.6296H97.2416C96.1228 26.6296 95.2158 27.5366 95.2158 28.6555C95.2158 29.7743 96.1228 30.6813 97.2416 30.6813H190.429C191.548 30.6813 192.455 29.7743 192.455 28.6555C192.455 27.5366 191.548 26.6296 190.429 26.6296Z" fill="#0E9DA5" fill-opacity="0.08"/>
</g>
</g>
</g>
<g clip-path="url(#clip6_1_2036)">
<g clip-path="url(#clip7_1_2036)">
<g clip-path="url(#clip8_1_2036)">
<g filter="url(#filter2_diii_1_2036)">
<path d="M198.525 1.20801H36.4597C31.9844 1.20801 28.3564 4.83596 28.3564 9.31128V413.462C28.3564 417.937 31.9844 421.565 36.4597 421.565H198.525C203 421.565 206.628 417.937 206.628 413.462V9.31128C206.628 4.83596 203 1.20801 198.525 1.20801Z" fill="url(#paint2_linear_1_2036)"/>
</g>
<path d="M77.9891 126.807H51.653C49.9748 126.807 48.6143 128.168 48.6143 129.846C48.6143 131.524 49.9748 132.885 51.653 132.885H77.9891C79.6674 132.885 81.0279 131.524 81.0279 129.846C81.0279 128.168 79.6674 126.807 77.9891 126.807Z" fill="#0E9DA5"/>
<path d="M61.7807 153.649H51.6515C50.2529 153.649 49.1191 154.783 49.1191 156.181C49.1191 157.58 50.2529 158.714 51.6515 158.714H61.7807C63.1793 158.714 64.313 157.58 64.313 156.181C64.313 154.783 63.1793 153.649 61.7807 153.649Z" stroke="#EFFEFF" stroke-opacity="0.06" stroke-width="1.01291"/>
<path d="M61.7818 155.167H51.6526C51.0932 155.167 50.6396 155.62 50.6396 156.18C50.6396 156.739 51.0932 157.193 51.6526 157.193H61.7818C62.3413 157.193 62.7948 156.739 62.7948 156.18C62.7948 155.62 62.3413 155.167 61.7818 155.167Z" fill="#EFFEFF" fill-opacity="0.06"/>
<path d="M96.2218 139.976H49.6272C49.0678 139.976 48.6143 140.43 48.6143 140.989C48.6143 141.549 49.0678 142.002 49.6272 142.002H96.2218C96.7812 142.002 97.2347 141.549 97.2347 140.989C97.2347 140.43 96.7812 139.976 96.2218 139.976Z" fill="#0E9DA5" fill-opacity="0.08"/>
<path d="M104.325 145.04H49.6272C49.0678 145.04 48.6143 145.494 48.6143 146.053C48.6143 146.612 49.0678 147.066 49.6272 147.066H104.325C104.885 147.066 105.338 146.612 105.338 146.053C105.338 145.494 104.885 145.04 104.325 145.04Z" fill="#0E9DA5" fill-opacity="0.08"/>
<path d="M186.371 122.755H127.622C125.384 122.755 123.57 124.569 123.57 126.806V159.219C123.57 161.457 125.384 163.271 127.622 163.271H186.371C188.608 163.271 190.422 161.457 190.422 159.219V126.806C190.422 124.569 188.608 122.755 186.371 122.755Z" fill="#0E9DA5" fill-opacity="0.04"/>
<path d="M107.364 179.478H48.6151C46.3775 179.478 44.5635 181.292 44.5635 183.53V215.943C44.5635 218.18 46.3775 219.994 48.6151 219.994H107.364C109.601 219.994 111.415 218.18 111.415 215.943V183.53C111.415 181.292 109.601 179.478 107.364 179.478Z" fill="#0E9DA5" fill-opacity="0.04"/>
<path d="M87.1054 29.5676H52.666C50.4283 29.5676 48.6143 31.3816 48.6143 33.6193C48.6143 35.857 50.4283 37.671 52.666 37.671H87.1054C89.3431 37.671 91.1571 35.857 91.1571 33.6193C91.1571 31.3816 89.3431 29.5676 87.1054 29.5676Z" fill="#0E9DA5"/>
<path d="M61.7823 55.9021H51.653C49.9748 55.9021 48.6143 57.2626 48.6143 58.9409C48.6143 60.6191 49.9748 61.9797 51.653 61.9797H61.7823C63.4606 61.9797 64.8211 60.6191 64.8211 58.9409C64.8211 57.2626 63.4606 55.9021 61.7823 55.9021Z" fill="#0E9DA5" fill-opacity="0.2"/>
<path d="M106.351 42.7349H49.6272C49.0678 42.7349 48.6143 43.1884 48.6143 43.7478C48.6143 44.3072 49.0678 44.7607 49.6272 44.7607H106.351C106.91 44.7607 107.364 44.3072 107.364 43.7478C107.364 43.1884 106.91 42.7349 106.351 42.7349Z" fill="#0E9DA5" fill-opacity="0.08"/>
<path d="M88.1183 47.8003H49.6272C49.0678 47.8003 48.6143 48.2538 48.6143 48.8132C48.6143 49.3726 49.0678 49.8261 49.6272 49.8261H88.1183C88.6778 49.8261 89.1313 49.3726 89.1313 48.8132C89.1313 48.2538 88.6778 47.8003 88.1183 47.8003Z" fill="#0E9DA5" fill-opacity="0.08"/>
<path d="M48.6143 77.1747V83.2522C48.6143 84.9305 49.9748 86.291 51.653 86.291H98.2476C99.9259 86.291 101.286 84.9305 101.286 83.2522V77.1747C101.286 75.4964 99.9259 74.1359 98.2476 74.1359H51.653C49.9748 74.1359 48.6143 75.4964 48.6143 77.1747Z" fill="#0E9DA5" fill-opacity="0.04"/>
<path d="M149.906 29.5676H127.622C125.384 29.5676 123.57 31.3816 123.57 33.6193V74.1363C123.57 76.374 125.384 78.188 127.622 78.188H149.906C152.144 78.188 153.958 76.374 153.958 74.1363V33.6193C153.958 31.3816 152.144 29.5676 149.906 29.5676Z" fill="#0E9DA5" fill-opacity="0.04"/>
<path d="M186.371 29.5676H164.087C161.849 29.5676 160.035 31.3816 160.035 33.6193V90.3421C160.035 92.5798 161.849 94.3938 164.087 94.3938H186.371C188.608 94.3938 190.422 92.5798 190.422 90.3421V33.6193C190.422 31.3816 188.608 29.5676 186.371 29.5676Z" fill="#0E9DA5" fill-opacity="0.04"/>
<path d="M37.4739 11.3354C38.0333 11.3354 38.4868 10.8819 38.4868 10.3225C38.4868 9.76307 38.0333 9.30957 37.4739 9.30957C36.9144 9.30957 36.4609 9.76307 36.4609 10.3225C36.4609 10.8819 36.9144 11.3354 37.4739 11.3354Z" fill="#0E9DA5" fill-opacity="0.12"/>
<path d="M43.551 11.3354C44.1104 11.3354 44.5639 10.8819 44.5639 10.3225C44.5639 9.76307 44.1104 9.30957 43.551 9.30957C42.9916 9.30957 42.5381 9.76307 42.5381 10.3225C42.5381 10.8819 42.9916 11.3354 43.551 11.3354Z" fill="#0E9DA5" fill-opacity="0.12"/>
<path d="M49.6272 11.3354C50.1866 11.3354 50.6401 10.8819 50.6401 10.3225C50.6401 9.76307 50.1866 9.30957 49.6272 9.30957C49.0678 9.30957 48.6143 9.76307 48.6143 10.3225C48.6143 10.8819 49.0678 11.3354 49.6272 11.3354Z" fill="#0E9DA5" fill-opacity="0.12"/>
<path d="M197.514 11.3354C198.073 11.3354 198.527 10.8819 198.527 10.3225C198.527 9.76307 198.073 9.30957 197.514 9.30957C196.954 9.30957 196.501 9.76307 196.501 10.3225C196.501 10.8819 196.954 11.3354 197.514 11.3354Z" fill="#0E9DA5" fill-opacity="0.12"/>
<path d="M164.089 8.29492H70.9018C69.783 8.29492 68.876 9.20191 68.876 10.3207C68.876 11.4396 69.783 12.3466 70.9018 12.3466H164.089C165.208 12.3466 166.115 11.4396 166.115 10.3207C166.115 9.20191 165.208 8.29492 164.089 8.29492Z" fill="#0E9DA5" fill-opacity="0.08"/>
</g>
</g>
</g>
<defs>
<filter id="filter0_diii_1_2036" x="-0.00237966" y="16.5025" width="182.323" height="426.435" filterUnits="userSpaceOnUse" color-interpolation-filters="sRGB">
<feFlood flood-opacity="0" result="BackgroundImageFix"/>
<feColorMatrix in="SourceAlpha" type="matrix" values="0 0 0 0 0 0 0 0 0 0 0 0 0 0 0 0 0 0 127 0" result="hardAlpha"/>
<feOffset dy="1.01291"/>
<feGaussianBlur stdDeviation="1.01291"/>
<feComposite in2="hardAlpha" operator="out"/>
<feColorMatrix type="matrix" values="0 0 0 0 0.056512 0 0 0 0 0.0368 0 0 0 0 0.2832 0 0 0 0.08 0"/>
<feBlend mode="normal" in2="BackgroundImageFix" result="effect1_dropShadow_1_2036"/>
<feBlend mode="normal" in="SourceGraphic" in2="effect1_dropShadow_1_2036" result="shape"/>
<feColorMatrix in="SourceAlpha" type="matrix" values="0 0 0 0 0 0 0 0 0 0 0 0 0 0 0 0 0 0 127 0" result="hardAlpha"/>
<feOffset/>
<feGaussianBlur stdDeviation="2.02582"/>
<feComposite in2="hardAlpha" operator="arithmetic" k2="-1" k3="1"/>
<feColorMatrix type="matrix" values="0 0 0 0 0.056512 0 0 0 0 0.0368 0 0 0 0 0.2832 0 0 0 0.04 0"/>
<feBlend mode="normal" in2="shape" result="effect2_innerShadow_1_2036"/>
<feColorMatrix in="SourceAlpha" type="matrix" values="0 0 0 0 0 0 0 0 0 0 0 0 0 0 0 0 0 0 127 0" result="hardAlpha"/>
<feOffset dy="-6.07745"/>
<feGaussianBlur stdDeviation="0.253227"/>
<feComposite in2="hardAlpha" operator="arithmetic" k2="-1" k3="1"/>
<feColorMatrix type="matrix" values="0 0 0 0 0.964706 0 0 0 0 0.972549 0 0 0 0 0.980392 0 0 0 1 0"/>
<feBlend mode="normal" in2="effect2_innerShadow_1_2036" result="effect3_innerShadow_1_2036"/>
<feColorMatrix in="SourceAlpha" type="matrix" values="0 0 0 0 0 0 0 0 0 0 0 0 0 0 0 0 0 0 127 0" result="hardAlpha"/>
<feOffset dy="-3.03873"/>
<feGaussianBlur stdDeviation="1.51936"/>
<feComposite in2="hardAlpha" operator="arithmetic" k2="-1" k3="1"/>
<feColorMatrix type="matrix" values="0 0 0 0 0.92549 0 0 0 0 0.937255 0 0 0 0 0.952941 0 0 0 1 0"/>
<feBlend mode="normal" in2="effect3_innerShadow_1_2036" result="effect4_innerShadow_1_2036"/>
</filter>
<filter id="filter1_diii_1_2036" x="52.6695" y="16.5025" width="182.323" height="426.435" filterUnits="userSpaceOnUse" color-interpolation-filters="sRGB">
<feFlood flood-opacity="0" result="BackgroundImageFix"/>
<feColorMatrix in="SourceAlpha" type="matrix" values="0 0 0 0 0 0 0 0 0 0 0 0 0 0 0 0 0 0 127 0" result="hardAlpha"/>
<feOffset dy="1.01291"/>
<feGaussianBlur stdDeviation="1.01291"/>
<feComposite in2="hardAlpha" operator="out"/>
<feColorMatrix type="matrix" values="0 0 0 0 0.056512 0 0 0 0 0.0368 0 0 0 0 0.2832 0 0 0 0.08 0"/>
<feBlend mode="normal" in2="BackgroundImageFix" result="effect1_dropShadow_1_2036"/>
<feBlend mode="normal" in="SourceGraphic" in2="effect1_dropShadow_1_2036" result="shape"/>
<feColorMatrix in="SourceAlpha" type="matrix" values="0 0 0 0 0 0 0 0 0 0 0 0 0 0 0 0 0 0 127 0" result="hardAlpha"/>
<feOffset/>
<feGaussianBlur stdDeviation="2.02582"/>
<feComposite in2="hardAlpha" operator="arithmetic" k2="-1" k3="1"/>
<feColorMatrix type="matrix" values="0 0 0 0 0.056512 0 0 0 0 0.0368 0 0 0 0 0.2832 0 0 0 0.04 0"/>
<feBlend mode="normal" in2="shape" result="effect2_innerShadow_1_2036"/>
<feColorMatrix in="SourceAlpha" type="matrix" values="0 0 0 0 0 0 0 0 0 0 0 0 0 0 0 0 0 0 127 0" result="hardAlpha"/>
<feOffset dy="-6.07745"/>
<feGaussianBlur stdDeviation="0.253227"/>
<feComposite in2="hardAlpha" operator="arithmetic" k2="-1" k3="1"/>
<feColorMatrix type="matrix" values="0 0 0 0 0.964706 0 0 0 0 0.972549 0 0 0 0 0.980392 0 0 0 1 0"/>
<feBlend mode="normal" in2="effect2_innerShadow_1_2036" result="effect3_innerShadow_1_2036"/>
<feColorMatrix in="SourceAlpha" type="matrix" values="0 0 0 0 0 0 0 0 0 0 0 0 0 0 0 0 0 0 127 0" result="hardAlpha"/>
<feOffset dy="-3.03873"/>
<feGaussianBlur stdDeviation="1.51936"/>
<feComposite in2="hardAlpha" operator="arithmetic" k2="-1" k3="1"/>
<feColorMatrix type="matrix" values="0 0 0 0 0.92549 0 0 0 0 0.937255 0 0 0 0 0.952941 0 0 0 1 0"/>
<feBlend mode="normal" in2="effect3_innerShadow_1_2036" result="effect4_innerShadow_1_2036"/>
</filter>
<filter id="filter2_diii_1_2036" x="26.3306" y="-1.83072" width="182.323" height="426.434" filterUnits="userSpaceOnUse" color-interpolation-filters="sRGB">
<feFlood flood-opacity="0" result="BackgroundImageFix"/>
<feColorMatrix in="SourceAlpha" type="matrix" values="0 0 0 0 0 0 0 0 0 0 0 0 0 0 0 0 0 0 127 0" result="hardAlpha"/>
<feOffset dy="1.01291"/>
<feGaussianBlur stdDeviation="1.01291"/>
<feComposite in2="hardAlpha" operator="out"/>
<feColorMatrix type="matrix" values="0 0 0 0 0.056512 0 0 0 0 0.0368 0 0 0 0 0.2832 0 0 0 0.08 0"/>
<feBlend mode="normal" in2="BackgroundImageFix" result="effect1_dropShadow_1_2036"/>
<feBlend mode="normal" in="SourceGraphic" in2="effect1_dropShadow_1_2036" result="shape"/>
<feColorMatrix in="SourceAlpha" type="matrix" values="0 0 0 0 0 0 0 0 0 0 0 0 0 0 0 0 0 0 127 0" result="hardAlpha"/>
<feOffset/>
<feGaussianBlur stdDeviation="2.02582"/>
<feComposite in2="hardAlpha" operator="arithmetic" k2="-1" k3="1"/>
<feColorMatrix type="matrix" values="0 0 0 0 0.056512 0 0 0 0 0.0368 0 0 0 0 0.2832 0 0 0 0.04 0"/>
<feBlend mode="normal" in2="shape" result="effect2_innerShadow_1_2036"/>
<feColorMatrix in="SourceAlpha" type="matrix" values="0 0 0 0 0 0 0 0 0 0 0 0 0 0 0 0 0 0 127 0" result="hardAlpha"/>
<feOffset dy="-6.07745"/>
<feGaussianBlur stdDeviation="0.253227"/>
<feComposite in2="hardAlpha" operator="arithmetic" k2="-1" k3="1"/>
<feColorMatrix type="matrix" values="0 0 0 0 0.964706 0 0 0 0 0.972549 0 0 0 0 0.980392 0 0 0 1 0"/>
<feBlend mode="normal" in2="effect2_innerShadow_1_2036" result="effect3_innerShadow_1_2036"/>
<feColorMatrix in="SourceAlpha" type="matrix" values="0 0 0 0 0 0 0 0 0 0 0 0 0 0 0 0 0 0 127 0" result="hardAlpha"/>
<feOffset dy="-3.03873"/>
<feGaussianBlur stdDeviation="1.51936"/>
<feComposite in2="hardAlpha" operator="arithmetic" k2="-1" k3="1"/>
<feColorMatrix type="matrix" values="0 0 0 0 0.92549 0 0 0 0 0.937255 0 0 0 0 0.952941 0 0 0 1 0"/>
<feBlend mode="normal" in2="effect3_innerShadow_1_2036" result="effect4_innerShadow_1_2036"/>
</filter>
<linearGradient id="paint0_linear_1_2036" x1="91.1594" y1="19.5413" x2="91.1594" y2="439.898" gradientUnits="userSpaceOnUse">
<stop stop-color="white" stop-opacity="0.95"/>
<stop offset="1" stop-color="white"/>
</linearGradient>
<linearGradient id="paint1_linear_1_2036" x1="143.831" y1="19.5413" x2="143.831" y2="439.898" gradientUnits="userSpaceOnUse">
<stop stop-color="white" stop-opacity="0.95"/>
<stop offset="1" stop-color="white"/>
</linearGradient>
<linearGradient id="paint2_linear_1_2036" x1="117.492" y1="1.20801" x2="117.492" y2="421.565" gradientUnits="userSpaceOnUse">
<stop stop-color="white" stop-opacity="0.95"/>
<stop offset="1" stop-color="white"/>
</linearGradient>
<clipPath id="clip0_1_2036">
<rect width="182.324" height="161.471" fill="white" transform="translate(0 18.5286)"/>
</clipPath>
<clipPath id="clip1_1_2036">
<rect width="182.324" height="231.956" fill="white" transform="translate(0 18.5283)"/>
</clipPath>
<clipPath id="clip2_1_2036">
<rect width="182.324" height="231.956" fill="white" transform="translate(0 18.5281)"/>
</clipPath>
<clipPath id="clip3_1_2036">
<rect width="182.324" height="161.471" fill="white" transform="translate(52.6719 18.5286)"/>
</clipPath>
<clipPath id="clip4_1_2036">
<rect width="182.324" height="231.956" fill="white" transform="translate(52.6729 18.5283)"/>
</clipPath>
<clipPath id="clip5_1_2036">
<rect width="182.324" height="231.956" fill="white" transform="translate(52.6738 18.5281)"/>
</clipPath>
<clipPath id="clip6_1_2036">
<rect width="182.324" height="179.804" fill="white" transform="translate(26.3359 0.195312)"/>
</clipPath>
<clipPath id="clip7_1_2036">
<rect width="182.324" height="258.292" fill="white" transform="translate(26.334 0.19458)"/>
</clipPath>
<clipPath id="clip8_1_2036">
<rect width="182.324" height="258.292" fill="white" transform="translate(26.332 0.193848)"/>
</clipPath>
</defs>
</svg>
