<svg width="20" height="20" viewBox="0 0 20 20" fill="none" xmlns="http://www.w3.org/2000/svg">
<path d="M18.3333 7.09984V3.3165C18.3333 2.1415 17.8 1.6665 16.475 1.6665H13.1083C11.7833 1.6665 11.25 2.1415 11.25 3.3165V7.0915C11.25 8.27484 11.7833 8.7415 13.1083 8.7415H16.475C17.8 8.74984 18.3333 8.27484 18.3333 7.09984Z" stroke="black" stroke-width="1.5" stroke-linecap="round" stroke-linejoin="round"/>
<path d="M18.3333 16.475V13.1083C18.3333 11.7833 17.8 11.25 16.475 11.25H13.1083C11.7833 11.25 11.25 11.7833 11.25 13.1083V16.475C11.25 17.8 11.7833 18.3333 13.1083 18.3333H16.475C17.8 18.3333 18.3333 17.8 18.3333 16.475Z" stroke="black" stroke-width="1.5" stroke-linecap="round" stroke-linejoin="round"/>
<path d="M8.7513 7.09984V3.3165C8.7513 2.1415 8.21797 1.6665 6.89297 1.6665H3.5263C2.2013 1.6665 1.66797 2.1415 1.66797 3.3165V7.0915C1.66797 8.27484 2.2013 8.7415 3.5263 8.7415H6.89297C8.21797 8.74984 8.7513 8.27484 8.7513 7.09984Z" stroke="black" stroke-width="1.5" stroke-linecap="round" stroke-linejoin="round"/>
<path d="M8.7513 16.475V13.1083C8.7513 11.7833 8.21797 11.25 6.89297 11.25H3.5263C2.2013 11.25 1.66797 11.7833 1.66797 13.1083V16.475C1.66797 17.8 2.2013 18.3333 3.5263 18.3333H6.89297C8.21797 18.3333 8.7513 17.8 8.7513 16.475Z" stroke="black" stroke-width="1.5" stroke-linecap="round" stroke-linejoin="round"/>
</svg>
