<svg width="150" height="150" viewBox="0 0 150 150" fill="none" xmlns="http://www.w3.org/2000/svg">
<g clip-path="url(#clip0_2203_20598)">
<rect x="3" y="3" width="144" height="144" rx="72" fill="#DCDCDC"/>
<path d="M76.2856 77.0574C88.4279 77.0574 98.2713 67.214 98.2713 55.0717C98.2713 42.9293 88.4279 33.0859 76.2856 33.0859C64.1432 33.0859 54.2999 42.9293 54.2999 55.0717C54.2999 67.214 64.1432 77.0574 76.2856 77.0574Z" fill="#CACACA"/>
<path d="M28.3946 124.646C26.9664 128.369 28.242 132.542 31.3922 134.987C43.7948 144.612 59.3713 150.343 76.2864 150.343C93.2187 150.343 108.81 144.601 121.219 134.957C124.367 132.51 125.64 128.336 124.209 124.614C116.813 105.372 98.1554 91.7145 76.308 91.7145C54.4487 91.7145 35.7827 105.386 28.3946 124.646Z" fill="#CACACA"/>
<ellipse cx="76.1712" cy="83.1296" rx="14.1712" ry="15.1296" fill="#959595"/>
<path d="M72.5429 91.7166H80.5707C82.6849 91.7166 83.5275 90.3345 83.6271 88.6498L84.0254 81.8947C84.1326 80.1282 82.8151 78.6316 81.1528 78.6316C80.6856 78.6316 80.2566 78.3454 80.0421 77.9038L79.4906 76.7179C79.1382 75.9737 78.219 75.3604 77.4377 75.3604H75.6835C74.8945 75.3604 73.9753 75.9737 73.6229 76.7179L73.0714 77.9038C72.8569 78.3454 72.428 78.6316 71.9607 78.6316C70.2984 78.6316 68.9809 80.1282 69.0881 81.8947L69.4865 88.6498C69.5784 90.3345 70.4287 91.7166 72.5429 91.7166Z" stroke="white" stroke-width="2" stroke-linecap="round" stroke-linejoin="round"/>
<path d="M75.4062 80.2671H77.7043" stroke="white" stroke-width="1.5" stroke-linecap="round" stroke-linejoin="round"/>
<path d="M76.5559 88.4452C77.9271 88.4452 79.0455 87.2512 79.0455 85.7873C79.0455 84.3234 77.9271 83.1294 76.5559 83.1294C75.1848 83.1294 74.0664 84.3234 74.0664 85.7873C74.0664 87.2512 75.1848 88.4452 76.5559 88.4452Z" stroke="white" stroke-width="1.5" stroke-linecap="round" stroke-linejoin="round"/>
</g>
<rect x="1.5" y="1.5" width="147" height="147" rx="73.5" stroke="white" stroke-width="3"/>
<defs>
<clipPath id="clip0_2203_20598">
<rect x="3" y="3" width="144" height="144" rx="72" fill="white"/>
</clipPath>
</defs>
</svg>
