<svg width="29" height="31" viewBox="0 0 29 31" fill="none" xmlns="http://www.w3.org/2000/svg">
<ellipse cx="14.1712" cy="15.1296" rx="14.1712" ry="15.1296" fill="#959595"/>
<path d="M10.5429 23.7166H18.5707C20.6849 23.7166 21.5275 22.3345 21.6271 20.6498L22.0254 13.8947C22.1326 12.1282 20.8151 10.6316 19.1528 10.6316C18.6856 10.6316 18.2566 10.3454 18.0421 9.90375L17.4906 8.71792C17.1382 7.97371 16.219 7.36035 15.4377 7.36035H13.6835C12.8945 7.36035 11.9753 7.97371 11.6229 8.71792L11.0714 9.90375C10.8569 10.3454 10.428 10.6316 9.96069 10.6316C8.29844 10.6316 6.9809 12.1282 7.08814 13.8947L7.48647 20.6498C7.57839 22.3345 8.42867 23.7166 10.5429 23.7166Z" stroke="white" stroke-width="2" stroke-linecap="round" stroke-linejoin="round"/>
<path d="M13.4062 12.2671H15.7043" stroke="white" stroke-width="1.5" stroke-linecap="round" stroke-linejoin="round"/>
<path d="M14.5559 20.4452C15.9271 20.4452 17.0455 19.2512 17.0455 17.7873C17.0455 16.3234 15.9271 15.1294 14.5559 15.1294C13.1848 15.1294 12.0664 16.3234 12.0664 17.7873C12.0664 19.2512 13.1848 20.4452 14.5559 20.4452Z" stroke="white" stroke-width="1.5" stroke-linecap="round" stroke-linejoin="round"/>
</svg>
